mtllib project_domus.mtl
# PROJECT DOMUS one-storey cutaway offline model
o Base_negra_800x520
usemtl base
v 0.000 0.000 0.000
v 800.000 0.000 0.000
v 800.000 520.000 0.000
v 0.000 520.000 0.000
v 0.000 0.000 12.000
v 800.000 0.000 12.000
v 800.000 520.000 12.000
v 0.000 520.000 12.000
f 1 2 3 4
f 5 8 7 6
f 1 5 6 2
f 2 6 7 3
f 3 7 8 4
f 5 1 4 8
o Frente_rotulado_PROJECT_DOMUS
usemtl roof
v 0.000 0.000 -63.000
v 800.000 0.000 -63.000
v 800.000 3.000 -63.000
v 0.000 3.000 -63.000
v 0.000 0.000 12.000
v 800.000 0.000 12.000
v 800.000 3.000 12.000
v 0.000 3.000 12.000
f 9 10 11 12
f 13 16 15 14
f 9 13 14 10
f 10 14 15 11
f 11 15 16 12
f 13 9 12 16
o Canal_técnico_oculto
usemtl blue
v 228.000 22.400 12.000
v 780.000 22.400 12.000
v 780.000 44.800 12.000
v 228.000 44.800 12.000
v 228.000 22.400 28.000
v 780.000 22.400 28.000
v 780.000 44.800 28.000
v 228.000 44.800 28.000
f 17 18 19 20
f 21 24 23 22
f 17 21 22 18
f 18 22 23 19
f 19 23 24 20
f 21 17 20 24
o Piso_vivienda
usemtl floor
v 240.000 240.000 12.000
v 584.000 240.000 12.000
v 584.000 500.000 12.000
v 240.000 500.000 12.000
v 240.000 240.000 19.000
v 584.000 240.000 19.000
v 584.000 500.000 19.000
v 240.000 500.000 19.000
f 25 26 27 28
f 29 32 31 30
f 25 29 30 26
f 26 30 31 27
f 27 31 32 28
f 29 25 28 32
o Muro_posterior_vivienda
usemtl wood_light
v 240.000 497.600 19.000
v 584.000 497.600 19.000
v 584.000 500.600 19.000
v 240.000 500.600 19.000
v 240.000 497.600 244.000
v 584.000 497.600 244.000
v 584.000 500.600 244.000
v 240.000 500.600 244.000
f 33 34 35 36
f 37 40 39 38
f 33 37 38 34
f 34 38 39 35
f 35 39 40 36
f 37 33 36 40
o Muro_lateral_izquierdo
usemtl wood_light
v 240.000 240.000 19.000
v 243.000 240.000 19.000
v 243.000 500.000 19.000
v 240.000 500.000 19.000
v 240.000 240.000 244.000
v 243.000 240.000 244.000
v 243.000 500.000 244.000
v 240.000 500.000 244.000
f 41 42 43 44
f 45 48 47 46
f 41 45 46 42
f 42 46 47 43
f 43 47 48 44
f 45 41 44 48
o Muro_lateral_derecho
usemtl wood_light
v 581.600 240.000 19.000
v 584.600 240.000 19.000
v 584.600 500.000 19.000
v 581.600 500.000 19.000
v 581.600 240.000 244.000
v 584.600 240.000 244.000
v 584.600 500.000 244.000
v 581.600 500.000 244.000
f 49 50 51 52
f 53 56 55 54
f 49 53 54 50
f 50 54 55 51
f 51 55 56 52
f 53 49 52 56
o Techo_plano_removible
usemtl roof
v 233.600 233.600 244.000
v 590.400 233.600 244.000
v 590.400 506.400 244.000
v 233.600 506.400 244.000
v 233.600 233.600 254.000
v 590.400 233.600 254.000
v 590.400 506.400 254.000
v 233.600 506.400 254.000
f 57 58 59 60
f 61 64 63 62
f 57 61 62 58
f 58 62 63 59
f 59 63 64 60
f 61 57 60 64
o Alero_frontal
usemtl wood
v 228.000 224.000 238.000
v 596.000 224.000 238.000
v 596.000 241.600 238.000
v 228.000 241.600 238.000
v 228.000 224.000 252.000
v 596.000 224.000 252.000
v 596.000 241.600 252.000
v 228.000 241.600 252.000
f 65 66 67 68
f 69 72 71 70
f 65 69 70 66
f 66 70 71 67
f 67 71 72 68
f 69 65 68 72
o Mueble_bajo_cocina
usemtl wood
v 260.000 457.600 19.000
v 402.400 457.600 19.000
v 402.400 491.200 19.000
v 260.000 491.200 19.000
v 260.000 457.600 87.000
v 402.400 457.600 87.000
v 402.400 491.200 87.000
v 260.000 491.200 87.000
f 73 74 75 76
f 77 80 79 78
f 73 77 78 74
f 74 78 79 75
f 75 79 80 76
f 77 73 76 80
o Encimera_cocina
usemtl wood_light
v 257.600 454.400 87.000
v 404.800 454.400 87.000
v 404.800 492.800 87.000
v 257.600 492.800 87.000
v 257.600 454.400 94.000
v 404.800 454.400 94.000
v 404.800 492.800 94.000
v 257.600 492.800 94.000
f 81 82 83 84
f 85 88 87 86
f 81 85 86 82
f 82 86 87 83
f 83 87 88 84
f 85 81 84 88
o Gabinete_alto_cocina
usemtl wood
v 260.000 475.200 130.000
v 364.000 475.200 130.000
v 364.000 494.400 130.000
v 260.000 494.400 130.000
v 260.000 475.200 202.000
v 364.000 475.200 202.000
v 364.000 494.400 202.000
v 260.000 494.400 202.000
f 89 90 91 92
f 93 96 95 94
f 89 93 94 90
f 90 94 95 91
f 91 95 96 92
f 93 89 92 96
o Refrigerador
usemtl metal
v 412.000 438.400 19.000
v 450.400 438.400 19.000
v 450.400 491.200 19.000
v 412.000 491.200 19.000
v 412.000 438.400 157.000
v 450.400 438.400 157.000
v 450.400 491.200 157.000
v 412.000 491.200 157.000
f 97 98 99 100
f 101 104 103 102
f 97 101 102 98
f 98 102 103 99
f 99 103 104 100
f 101 97 100 104
o Isla_cocina
usemtl wood
v 324.000 372.000 19.000
v 418.400 372.000 19.000
v 418.400 410.400 19.000
v 324.000 410.400 19.000
v 324.000 372.000 89.000
v 418.400 372.000 89.000
v 418.400 410.400 89.000
v 324.000 410.400 89.000
f 105 106 107 108
f 109 112 111 110
f 105 109 110 106
f 106 110 111 107
f 107 111 112 108
f 109 105 108 112
o Cubierta_isla
usemtl wood_light
v 320.000 368.000 89.000
v 422.400 368.000 89.000
v 422.400 414.400 89.000
v 320.000 414.400 89.000
v 320.000 368.000 95.000
v 422.400 368.000 95.000
v 422.400 414.400 95.000
v 320.000 414.400 95.000
f 113 114 115 116
f 117 120 119 118
f 113 117 118 114
f 114 118 119 115
f 115 119 120 116
f 117 113 116 120
o Sofá_sala
usemtl blue
v 264.000 280.000 19.000
v 361.600 280.000 19.000
v 361.600 324.000 19.000
v 264.000 324.000 19.000
v 264.000 280.000 71.000
v 361.600 280.000 71.000
v 361.600 324.000 71.000
v 264.000 324.000 71.000
f 121 122 123 124
f 125 128 127 126
f 121 125 126 122
f 122 126 127 123
f 123 127 128 124
f 125 121 124 128
o Mesa_sala
usemtl wood
v 369.600 296.000 19.000
v 425.600 296.000 19.000
v 425.600 334.400 19.000
v 369.600 334.400 19.000
v 369.600 296.000 50.000
v 425.600 296.000 50.000
v 425.600 334.400 50.000
v 369.600 334.400 50.000
f 129 130 131 132
f 133 136 135 134
f 129 133 134 130
f 130 134 135 131
f 131 135 136 132
f 133 129 132 136
o Cama_base
usemtl wood
v 436.000 324.000 19.000
v 530.400 324.000 19.000
v 530.400 466.400 19.000
v 436.000 466.400 19.000
v 436.000 324.000 56.000
v 530.400 324.000 56.000
v 530.400 466.400 56.000
v 436.000 466.400 56.000
f 137 138 139 140
f 141 144 143 142
f 137 141 142 138
f 138 142 143 139
f 139 143 144 140
f 141 137 140 144
o Colchón
usemtl white
v 440.000 328.000 56.000
v 526.400 328.000 56.000
v 526.400 462.400 56.000
v 440.000 462.400 56.000
v 440.000 328.000 80.000
v 526.400 328.000 80.000
v 526.400 462.400 80.000
v 440.000 462.400 80.000
f 145 146 147 148
f 149 152 151 150
f 145 149 150 146
f 146 150 151 147
f 147 151 152 148
f 149 145 148 152
o Cabecero
usemtl wood
v 433.600 453.600 19.000
v 532.800 453.600 19.000
v 532.800 463.600 19.000
v 433.600 463.600 19.000
v 433.600 453.600 105.000
v 532.800 453.600 105.000
v 532.800 463.600 105.000
v 433.600 463.600 105.000
f 153 154 155 156
f 157 160 159 158
f 153 157 158 154
f 154 158 159 155
f 155 159 160 156
f 157 153 156 160
o Mesa_de_noche
usemtl wood
v 540.000 416.000 19.000
v 570.400 416.000 19.000
v 570.400 446.400 19.000
v 540.000 446.400 19.000
v 540.000 416.000 61.000
v 570.400 416.000 61.000
v 570.400 446.400 61.000
v 540.000 446.400 61.000
f 161 162 163 164
f 165 168 167 166
f 161 165 166 162
f 162 166 167 163
f 163 167 168 164
f 165 161 164 168
o Mampara_baño
usemtl glass
v 544.000 244.000 19.000
v 547.000 244.000 19.000
v 547.000 476.000 19.000
v 544.000 476.000 19.000
v 544.000 244.000 209.000
v 547.000 244.000 209.000
v 547.000 476.000 209.000
v 544.000 476.000 209.000
f 169 170 171 172
f 173 176 175 174
f 169 173 174 170
f 170 174 175 171
f 171 175 176 172
f 173 169 172 176
o Ducha_piso
usemtl glass
v 550.400 400.000 19.000
v 577.600 400.000 19.000
v 577.600 475.200 19.000
v 550.400 475.200 19.000
v 550.400 400.000 27.000
v 577.600 400.000 27.000
v 577.600 475.200 27.000
v 550.400 475.200 27.000
f 177 178 179 180
f 181 184 183 182
f 177 181 182 178
f 178 182 183 179
f 179 183 184 180
f 181 177 180 184
o Lavamanos
usemtl white
v 551.200 344.000 19.000
v 576.800 344.000 19.000
v 576.800 382.400 19.000
v 551.200 382.400 19.000
v 551.200 344.000 81.000
v 576.800 344.000 81.000
v 576.800 382.400 81.000
v 551.200 382.400 81.000
f 185 186 187 188
f 189 192 191 190
f 185 189 190 186
f 186 190 191 187
f 187 191 192 188
f 189 185 188 192
o Inodoro
usemtl white
v 552.000 272.000 19.000
v 576.000 272.000 19.000
v 576.000 313.600 19.000
v 552.000 313.600 19.000
v 552.000 272.000 62.000
v 576.000 272.000 62.000
v 576.000 313.600 62.000
v 552.000 313.600 62.000
f 193 194 195 196
f 197 200 199 198
f 193 197 198 194
f 194 198 199 195
f 195 199 200 196
f 197 193 196 200
o Plataforma_porche
usemtl floor
v 272.000 57.600 12.000
v 472.000 57.600 12.000
v 472.000 213.600 12.000
v 272.000 213.600 12.000
v 272.000 57.600 20.000
v 472.000 57.600 20.000
v 472.000 213.600 20.000
v 272.000 213.600 20.000
f 201 202 203 204
f 205 208 207 206
f 201 205 206 202
f 202 206 207 203
f 203 207 208 204
f 205 201 204 208
o Cubierta_porche
usemtl roof
v 265.600 49.600 154.000
v 478.400 49.600 154.000
v 478.400 217.600 154.000
v 265.600 217.600 154.000
v 265.600 49.600 163.000
v 478.400 49.600 163.000
v 478.400 217.600 163.000
v 265.600 217.600 163.000
f 209 210 211 212
f 213 216 215 214
f 209 213 214 210
f 210 214 215 211
f 211 215 216 212
f 213 209 212 216
o Poste_porche_izquierdo
usemtl wood
v 276.000 60.000 20.000
v 284.000 60.000 20.000
v 284.000 68.000 20.000
v 276.000 68.000 20.000
v 276.000 60.000 154.000
v 284.000 60.000 154.000
v 284.000 68.000 154.000
v 276.000 68.000 154.000
f 217 218 219 220
f 221 224 223 222
f 217 221 222 218
f 218 222 223 219
f 219 223 224 220
f 221 217 220 224
o Poste_porche_derecho
usemtl wood
v 460.000 60.000 20.000
v 468.000 60.000 20.000
v 468.000 68.000 20.000
v 460.000 68.000 20.000
v 460.000 60.000 154.000
v 468.000 60.000 154.000
v 468.000 68.000 154.000
v 460.000 68.000 154.000
f 225 226 227 228
f 229 232 231 230
f 225 229 230 226
f 226 230 231 227
f 227 231 232 228
f 229 225 228 232
o Pasarela
usemtl wood_light
v 352.000 17.600 12.000
v 398.400 17.600 12.000
v 398.400 105.600 12.000
v 352.000 105.600 12.000
v 352.000 17.600 18.000
v 398.400 17.600 18.000
v 398.400 105.600 18.000
v 352.000 105.600 18.000
f 233 234 235 236
f 237 240 239 238
f 233 237 238 234
f 234 238 239 235
f 235 239 240 236
f 237 233 236 240
o Jardinera_izquierda
usemtl soil
v 288.000 73.600 20.000
v 318.400 73.600 20.000
v 318.400 181.600 20.000
v 288.000 181.600 20.000
v 288.000 73.600 46.000
v 318.400 73.600 46.000
v 318.400 181.600 46.000
v 288.000 181.600 46.000
f 241 242 243 244
f 245 248 247 246
f 241 245 246 242
f 242 246 247 243
f 243 247 248 244
f 245 241 244 248
o Jardinera_derecha
usemtl soil
v 424.000 73.600 20.000
v 454.400 73.600 20.000
v 454.400 181.600 20.000
v 424.000 181.600 20.000
v 424.000 73.600 46.000
v 454.400 73.600 46.000
v 454.400 181.600 46.000
v 424.000 181.600 46.000
f 249 250 251 252
f 253 256 255 254
f 249 253 254 250
f 250 254 255 251
f 251 255 256 252
f 253 249 252 256
o Base_invernadero
usemtl wood
v 20.000 184.000 12.000
v 220.000 184.000 12.000
v 220.000 464.000 12.000
v 20.000 464.000 12.000
v 20.000 184.000 19.000
v 220.000 184.000 19.000
v 220.000 464.000 19.000
v 20.000 464.000 19.000
f 257 258 259 260
f 261 264 263 262
f 257 261 262 258
f 258 262 263 259
f 259 263 264 260
f 261 257 260 264
o Bancal_izquierdo
usemtl soil
v 38.400 212.000 19.000
v 99.200 212.000 19.000
v 99.200 436.000 19.000
v 38.400 436.000 19.000
v 38.400 212.000 61.000
v 99.200 212.000 61.000
v 99.200 436.000 61.000
v 38.400 436.000 61.000
f 265 266 267 268
f 269 272 271 270
f 265 269 270 266
f 266 270 271 267
f 267 271 272 268
f 269 265 268 272
o Bancal_derecho
usemtl soil
v 124.000 212.000 19.000
v 184.800 212.000 19.000
v 184.800 436.000 19.000
v 124.000 436.000 19.000
v 124.000 212.000 61.000
v 184.800 212.000 61.000
v 184.800 436.000 61.000
v 124.000 436.000 61.000
f 273 274 275 276
f 277 280 279 278
f 273 277 278 274
f 274 278 279 275
f 275 279 280 276
f 277 273 276 280
o Panel_transparente_izquierdo
usemtl glass
v 20.000 184.000 19.000
v 23.000 184.000 19.000
v 23.000 464.000 19.000
v 20.000 464.000 19.000
v 20.000 184.000 184.000
v 23.000 184.000 184.000
v 23.000 464.000 184.000
v 20.000 464.000 184.000
f 281 282 283 284
f 285 288 287 286
f 281 285 286 282
f 282 286 287 283
f 283 287 288 284
f 285 281 284 288
o Panel_transparente_derecho
usemtl glass
v 217.600 184.000 19.000
v 220.600 184.000 19.000
v 220.600 464.000 19.000
v 217.600 464.000 19.000
v 217.600 184.000 184.000
v 220.600 184.000 184.000
v 220.600 464.000 184.000
v 217.600 464.000 184.000
f 289 290 291 292
f 293 296 295 294
f 289 293 294 290
f 290 294 295 291
f 291 295 296 292
f 293 289 292 296
o Panel_transparente_posterior
usemtl glass
v 20.000 461.600 19.000
v 220.000 461.600 19.000
v 220.000 464.600 19.000
v 20.000 464.600 19.000
v 20.000 461.600 184.000
v 220.000 461.600 184.000
v 220.000 464.600 184.000
v 20.000 464.600 184.000
f 297 298 299 300
f 301 304 303 302
f 297 301 302 298
f 298 302 303 299
f 299 303 304 300
f 301 297 300 304
o Cubierta_inclinada_izquierda
usemtl glass
v 25.412 184.000 182.603
v 125.427 184.000 223.622
v 125.427 464.000 223.622
v 25.412 464.000 182.603
v 24.273 184.000 185.378
v 124.288 184.000 226.397
v 124.288 464.000 226.397
v 24.273 464.000 185.378
f 305 306 307 308
f 309 312 311 310
f 305 309 310 306
f 306 310 311 307
f 307 311 312 308
f 309 305 308 312
o Cubierta_inclinada_derecha
usemtl glass
v 114.673 184.000 223.622
v 214.688 184.000 182.603
v 214.688 464.000 182.603
v 114.673 464.000 223.622
v 115.812 184.000 226.397
v 215.827 184.000 185.378
v 215.827 464.000 185.378
v 115.812 464.000 226.397
f 313 314 315 316
f 317 320 319 318
f 313 317 318 314
f 314 318 319 315
f 315 319 320 316
f 317 313 316 320
o Viga_cumbrera
usemtl metal
v 116.800 184.000 217.000
v 124.800 184.000 217.000
v 124.800 464.000 217.000
v 116.800 464.000 217.000
v 116.800 184.000 225.000
v 124.800 184.000 225.000
v 124.800 464.000 225.000
v 116.800 464.000 225.000
f 321 322 323 324
f 325 328 327 326
f 321 325 326 322
f 322 326 327 323
f 323 327 328 324
f 325 321 324 328
o Poste_invernadero_25-230
usemtl metal
v 20.000 184.000 19.000
v 27.000 184.000 19.000
v 27.000 191.000 19.000
v 20.000 191.000 19.000
v 20.000 184.000 184.000
v 27.000 184.000 184.000
v 27.000 191.000 184.000
v 20.000 191.000 184.000
f 329 330 331 332
f 333 336 335 334
f 329 333 334 330
f 330 334 335 331
f 331 335 336 332
f 333 329 332 336
o Poste_invernadero_25-577
usemtl metal
v 20.000 461.600 19.000
v 27.000 461.600 19.000
v 27.000 468.600 19.000
v 20.000 468.600 19.000
v 20.000 461.600 184.000
v 27.000 461.600 184.000
v 27.000 468.600 184.000
v 20.000 468.600 184.000
f 337 338 339 340
f 341 344 343 342
f 337 341 342 338
f 338 342 343 339
f 339 343 344 340
f 341 337 340 344
o Poste_invernadero_150-230
usemtl metal
v 120.000 184.000 19.000
v 127.000 184.000 19.000
v 127.000 191.000 19.000
v 120.000 191.000 19.000
v 120.000 184.000 225.000
v 127.000 184.000 225.000
v 127.000 191.000 225.000
v 120.000 191.000 225.000
f 345 346 347 348
f 349 352 351 350
f 345 349 350 346
f 346 350 351 347
f 347 351 352 348
f 349 345 348 352
o Poste_invernadero_150-577
usemtl metal
v 120.000 461.600 19.000
v 127.000 461.600 19.000
v 127.000 468.600 19.000
v 120.000 468.600 19.000
v 120.000 461.600 225.000
v 127.000 461.600 225.000
v 127.000 468.600 225.000
v 120.000 468.600 225.000
f 353 354 355 356
f 357 360 359 358
f 353 357 358 354
f 354 358 359 355
f 355 359 360 356
f 357 353 356 360
o Poste_invernadero_272-230
usemtl metal
v 217.600 184.000 19.000
v 224.600 184.000 19.000
v 224.600 191.000 19.000
v 217.600 191.000 19.000
v 217.600 184.000 184.000
v 224.600 184.000 184.000
v 224.600 191.000 184.000
v 217.600 191.000 184.000
f 361 362 363 364
f 365 368 367 366
f 361 365 366 362
f 362 366 367 363
f 363 367 368 364
f 365 361 364 368
o Poste_invernadero_272-577
usemtl metal
v 217.600 461.600 19.000
v 224.600 461.600 19.000
v 224.600 468.600 19.000
v 217.600 468.600 19.000
v 217.600 461.600 184.000
v 224.600 461.600 184.000
v 224.600 468.600 184.000
v 217.600 468.600 184.000
f 369 370 371 372
f 373 376 375 374
f 369 373 374 370
f 370 374 375 371
f 371 375 376 372
f 373 369 372 376
o Planta_48
usemtl green
v 38.400 264.000 61.000
v 48.400 264.000 61.000
v 48.400 274.000 61.000
v 38.400 274.000 61.000
v 38.400 264.000 119.000
v 48.400 264.000 119.000
v 48.400 274.000 119.000
v 38.400 274.000 119.000
f 377 378 379 380
f 381 384 383 382
f 377 381 382 378
f 378 382 383 379
f 379 383 384 380
f 381 377 380 384
o Planta_88
usemtl green
v 70.400 264.000 61.000
v 80.400 264.000 61.000
v 80.400 274.000 61.000
v 70.400 274.000 61.000
v 70.400 264.000 119.000
v 80.400 264.000 119.000
v 80.400 274.000 119.000
v 70.400 274.000 119.000
f 385 386 387 388
f 389 392 391 390
f 385 389 390 386
f 386 390 391 387
f 387 391 392 388
f 389 385 388 392
o Planta_172
usemtl green
v 137.600 264.000 61.000
v 147.600 264.000 61.000
v 147.600 274.000 61.000
v 137.600 274.000 61.000
v 137.600 264.000 119.000
v 147.600 264.000 119.000
v 147.600 274.000 119.000
v 137.600 274.000 119.000
f 393 394 395 396
f 397 400 399 398
f 393 397 398 394
f 394 398 399 395
f 395 399 400 396
f 397 393 396 400
o Planta_212
usemtl green
v 169.600 264.000 61.000
v 179.600 264.000 61.000
v 179.600 274.000 61.000
v 169.600 274.000 61.000
v 169.600 264.000 119.000
v 179.600 264.000 119.000
v 179.600 274.000 119.000
v 169.600 274.000 119.000
f 401 402 403 404
f 405 408 407 406
f 401 405 406 402
f 402 406 407 403
f 403 407 408 404
f 405 401 404 408
o Torre_Jarvis_cuerpo
usemtl roof
v 600.000 196.000 12.000
v 684.000 196.000 12.000
v 684.000 290.400 12.000
v 600.000 290.400 12.000
v 600.000 196.000 302.000
v 684.000 196.000 302.000
v 684.000 290.400 302.000
v 600.000 290.400 302.000
f 409 410 411 412
f 413 416 415 414
f 409 413 414 410
f 410 414 415 411
f 411 415 416 412
f 413 409 412 416
o Panel_azul_central
usemtl blue
v 612.800 191.200 55.000
v 671.200 191.200 55.000
v 671.200 198.200 55.000
v 612.800 198.200 55.000
v 612.800 191.200 275.000
v 671.200 191.200 275.000
v 671.200 198.200 275.000
v 612.800 198.200 275.000
f 417 418 419 420
f 421 424 423 422
f 417 421 422 418
f 418 422 423 419
f 419 423 424 420
f 421 417 420 424
o Gabinete_técnico_base
usemtl metal
v 696.000 188.000 12.000
v 784.000 188.000 12.000
v 784.000 308.000 12.000
v 696.000 308.000 12.000
v 696.000 188.000 19.000
v 784.000 188.000 19.000
v 784.000 308.000 19.000
v 696.000 308.000 19.000
f 425 426 427 428
f 429 432 431 430
f 425 429 430 426
f 426 430 431 427
f 427 431 432 428
f 429 425 428 432
o Gabinete_fondo
usemtl wood
v 696.000 305.600 19.000
v 784.000 305.600 19.000
v 784.000 308.600 19.000
v 696.000 308.600 19.000
v 696.000 305.600 269.000
v 784.000 305.600 269.000
v 784.000 308.600 269.000
v 696.000 308.600 269.000
f 433 434 435 436
f 437 440 439 438
f 433 437 438 434
f 434 438 439 435
f 435 439 440 436
f 437 433 436 440
o Gabinete_lateral_izquierdo
usemtl glass
v 696.000 188.000 19.000
v 699.000 188.000 19.000
v 699.000 308.000 19.000
v 696.000 308.000 19.000
v 696.000 188.000 269.000
v 699.000 188.000 269.000
v 699.000 308.000 269.000
v 696.000 308.000 269.000
f 441 442 443 444
f 445 448 447 446
f 441 445 446 442
f 442 446 447 443
f 443 447 448 444
f 445 441 444 448
o Gabinete_lateral_derecho
usemtl glass
v 781.600 188.000 19.000
v 784.600 188.000 19.000
v 784.600 308.000 19.000
v 781.600 308.000 19.000
v 781.600 188.000 269.000
v 784.600 188.000 269.000
v 784.600 308.000 269.000
v 781.600 308.000 269.000
f 449 450 451 452
f 453 456 455 454
f 449 453 454 450
f 450 454 455 451
f 451 455 456 452
f 453 449 452 456
o Gabinete_frontal_removible
usemtl glass
v 696.000 188.000 19.000
v 784.000 188.000 19.000
v 784.000 191.000 19.000
v 696.000 191.000 19.000
v 696.000 188.000 269.000
v 784.000 188.000 269.000
v 784.000 191.000 269.000
v 696.000 191.000 269.000
f 457 458 459 460
f 461 464 463 462
f 457 461 462 458
f 458 462 463 459
f 459 463 464 460
f 461 457 460 464
o Junta_de_tablón_310
usemtl wood
v 248.000 496.800 20.000
v 249.400 496.800 20.000
v 249.400 500.800 20.000
v 248.000 500.800 20.000
v 248.000 496.800 242.000
v 249.400 496.800 242.000
v 249.400 500.800 242.000
v 248.000 500.800 242.000
f 465 466 467 468
f 469 472 471 470
f 465 469 470 466
f 466 470 471 467
f 467 471 472 468
f 469 465 468 472
o Junta_de_tablón_352
usemtl wood
v 281.600 496.800 20.000
v 283.000 496.800 20.000
v 283.000 500.800 20.000
v 281.600 500.800 20.000
v 281.600 496.800 242.000
v 283.000 496.800 242.000
v 283.000 500.800 242.000
v 281.600 500.800 242.000
f 473 474 475 476
f 477 480 479 478
f 473 477 478 474
f 474 478 479 475
f 475 479 480 476
f 477 473 476 480
o Junta_de_tablón_394
usemtl wood
v 315.200 496.800 20.000
v 316.600 496.800 20.000
v 316.600 500.800 20.000
v 315.200 500.800 20.000
v 315.200 496.800 242.000
v 316.600 496.800 242.000
v 316.600 500.800 242.000
v 315.200 500.800 242.000
f 481 482 483 484
f 485 488 487 486
f 481 485 486 482
f 482 486 487 483
f 483 487 488 484
f 485 481 484 488
o Junta_de_tablón_436
usemtl wood
v 348.800 496.800 20.000
v 350.200 496.800 20.000
v 350.200 500.800 20.000
v 348.800 500.800 20.000
v 348.800 496.800 242.000
v 350.200 496.800 242.000
v 350.200 500.800 242.000
v 348.800 500.800 242.000
f 489 490 491 492
f 493 496 495 494
f 489 493 494 490
f 490 494 495 491
f 491 495 496 492
f 493 489 492 496
o Junta_de_tablón_478
usemtl wood
v 382.400 496.800 20.000
v 383.800 496.800 20.000
v 383.800 500.800 20.000
v 382.400 500.800 20.000
v 382.400 496.800 242.000
v 383.800 496.800 242.000
v 383.800 500.800 242.000
v 382.400 500.800 242.000
f 497 498 499 500
f 501 504 503 502
f 497 501 502 498
f 498 502 503 499
f 499 503 504 500
f 501 497 500 504
o Junta_de_tablón_520
usemtl wood
v 416.000 496.800 20.000
v 417.400 496.800 20.000
v 417.400 500.800 20.000
v 416.000 500.800 20.000
v 416.000 496.800 242.000
v 417.400 496.800 242.000
v 417.400 500.800 242.000
v 416.000 500.800 242.000
f 505 506 507 508
f 509 512 511 510
f 505 509 510 506
f 506 510 511 507
f 507 511 512 508
f 509 505 508 512
o Junta_de_tablón_562
usemtl wood
v 449.600 496.800 20.000
v 451.000 496.800 20.000
v 451.000 500.800 20.000
v 449.600 500.800 20.000
v 449.600 496.800 242.000
v 451.000 496.800 242.000
v 451.000 500.800 242.000
v 449.600 500.800 242.000
f 513 514 515 516
f 517 520 519 518
f 513 517 518 514
f 514 518 519 515
f 515 519 520 516
f 517 513 516 520
o Junta_de_tablón_604
usemtl wood
v 483.200 496.800 20.000
v 484.600 496.800 20.000
v 484.600 500.800 20.000
v 483.200 500.800 20.000
v 483.200 496.800 242.000
v 484.600 496.800 242.000
v 484.600 500.800 242.000
v 483.200 500.800 242.000
f 521 522 523 524
f 525 528 527 526
f 521 525 526 522
f 522 526 527 523
f 523 527 528 524
f 525 521 524 528
o Junta_de_tablón_646
usemtl wood
v 516.800 496.800 20.000
v 518.200 496.800 20.000
v 518.200 500.800 20.000
v 516.800 500.800 20.000
v 516.800 496.800 242.000
v 518.200 496.800 242.000
v 518.200 500.800 242.000
v 516.800 500.800 242.000
f 529 530 531 532
f 533 536 535 534
f 529 533 534 530
f 530 534 535 531
f 531 535 536 532
f 533 529 532 536
o Junta_de_tablón_688
usemtl wood
v 550.400 496.800 20.000
v 551.800 496.800 20.000
v 551.800 500.800 20.000
v 550.400 500.800 20.000
v 550.400 496.800 242.000
v 551.800 496.800 242.000
v 551.800 500.800 242.000
v 550.400 500.800 242.000
f 537 538 539 540
f 541 544 543 542
f 537 541 542 538
f 538 542 543 539
f 539 543 544 540
f 541 537 540 544
o Junta_de_tablón_730
usemtl wood
v 584.000 496.800 20.000
v 585.400 496.800 20.000
v 585.400 500.800 20.000
v 584.000 500.800 20.000
v 584.000 496.800 242.000
v 585.400 496.800 242.000
v 585.400 500.800 242.000
v 584.000 500.800 242.000
f 545 546 547 548
f 549 552 551 550
f 545 549 550 546
f 546 550 551 547
f 547 551 552 548
f 549 545 548 552
o Tabique_dormitorio
usemtl wood_light
v 425.600 313.600 19.000
v 428.600 313.600 19.000
v 428.600 496.000 19.000
v 425.600 496.000 19.000
v 425.600 313.600 207.000
v 428.600 313.600 207.000
v 428.600 496.000 207.000
v 425.600 496.000 207.000
f 553 554 555 556
f 557 560 559 558
f 553 557 558 554
f 554 558 559 555
f 555 559 560 556
f 557 553 556 560
o Puerta_interior
usemtl wood
v 423.200 252.000 19.000
v 430.200 252.000 19.000
v 430.200 309.600 19.000
v 423.200 309.600 19.000
v 423.200 252.000 193.000
v 430.200 252.000 193.000
v 430.200 309.600 193.000
v 423.200 309.600 193.000
f 561 562 563 564
f 565 568 567 566
f 561 565 566 562
f 562 566 567 563
f 563 567 568 564
f 565 561 564 568
o Frente_cajón_cocina_1
usemtl wood_light
v 272.000 453.600 36.000
v 324.800 453.600 36.000
v 324.800 457.600 36.000
v 272.000 457.600 36.000
v 272.000 453.600 56.000
v 324.800 453.600 56.000
v 324.800 457.600 56.000
v 272.000 457.600 56.000
f 569 570 571 572
f 573 576 575 574
f 569 573 574 570
f 570 574 575 571
f 571 575 576 572
f 573 569 572 576
o Frente_cajón_cocina_2
usemtl wood_light
v 328.000 453.600 36.000
v 380.800 453.600 36.000
v 380.800 457.600 36.000
v 328.000 457.600 36.000
v 328.000 453.600 56.000
v 380.800 453.600 56.000
v 380.800 457.600 56.000
v 328.000 457.600 56.000
f 577 578 579 580
f 581 584 583 582
f 577 581 582 578
f 578 582 583 579
f 579 583 584 580
f 581 577 580 584
o Fregadero
usemtl metal
v 361.600 450.400 94.000
v 393.600 450.400 94.000
v 393.600 474.400 94.000
v 361.600 474.400 94.000
v 361.600 450.400 99.000
v 393.600 450.400 99.000
v 393.600 474.400 99.000
v 361.600 474.400 99.000
f 585 586 587 588
f 589 592 591 590
f 585 589 590 586
f 586 590 591 587
f 587 591 592 588
f 589 585 588 592
o Grifo
usemtl metal
v 376.000 475.200 98.000
v 381.000 475.200 98.000
v 381.000 480.200 98.000
v 376.000 480.200 98.000
v 376.000 475.200 128.000
v 381.000 475.200 128.000
v 381.000 480.200 128.000
v 376.000 480.200 128.000
f 593 594 595 596
f 597 600 599 598
f 593 597 598 594
f 594 598 599 595
f 595 599 600 596
f 597 593 596 600
o Almohada
usemtl white
v 450.400 429.600 80.000
v 516.000 429.600 80.000
v 516.000 456.800 80.000
v 450.400 456.800 80.000
v 450.400 429.600 92.000
v 516.000 429.600 92.000
v 516.000 456.800 92.000
v 450.400 456.800 92.000
f 601 602 603 604
f 605 608 607 606
f 601 605 606 602
f 602 606 607 603
f 603 607 608 604
f 605 601 604 608
o Respaldo_sofá
usemtl blue
v 264.000 312.000 55.000
v 361.600 312.000 55.000
v 361.600 323.200 55.000
v 264.000 323.200 55.000
v 264.000 312.000 93.000
v 361.600 312.000 93.000
v 361.600 323.200 93.000
v 264.000 323.200 93.000
f 609 610 611 612
f 613 616 615 614
f 609 613 614 610
f 610 614 615 611
f 611 615 616 612
f 613 609 612 616
o Lavamanos_cubeta
usemtl acrylic
v 552.800 348.000 82.000
v 574.400 348.000 82.000
v 574.400 377.600 82.000
v 552.800 377.600 82.000
v 552.800 348.000 90.000
v 574.400 348.000 90.000
v 574.400 377.600 90.000
v 552.800 377.600 90.000
f 617 618 619 620
f 621 624 623 622
f 617 621 622 618
f 618 622 623 619
f 619 623 624 620
f 621 617 620 624
o Ducha_columna
usemtl metal
v 571.200 452.800 27.000
v 577.200 452.800 27.000
v 577.200 458.800 27.000
v 571.200 458.800 27.000
v 571.200 452.800 165.000
v 577.200 452.800 165.000
v 577.200 458.800 165.000
v 571.200 458.800 165.000
f 625 626 627 628
f 629 632 631 630
f 625 629 630 626
f 626 630 631 627
f 627 631 632 628
f 629 625 628 632
o Imán_techo_300-300
usemtl magnet
v 240.000 240.000 241.000
v 248.000 240.000 241.000
v 248.000 248.000 241.000
v 240.000 248.000 241.000
v 240.000 240.000 245.000
v 248.000 240.000 245.000
v 248.000 248.000 245.000
v 240.000 248.000 245.000
f 633 634 635 636
f 637 640 639 638
f 633 637 638 634
f 634 638 639 635
f 635 639 640 636
f 637 633 636 640
o Imán_techo_724-300
usemtl magnet
v 579.200 240.000 241.000
v 587.200 240.000 241.000
v 587.200 248.000 241.000
v 579.200 248.000 241.000
v 579.200 240.000 245.000
v 587.200 240.000 245.000
v 587.200 248.000 245.000
v 579.200 248.000 245.000
f 641 642 643 644
f 645 648 647 646
f 641 645 646 642
f 642 646 647 643
f 643 647 648 644
f 645 641 644 648
o Imán_techo_300-620
usemtl magnet
v 240.000 496.000 241.000
v 248.000 496.000 241.000
v 248.000 504.000 241.000
v 240.000 504.000 241.000
v 240.000 496.000 245.000
v 248.000 496.000 245.000
v 248.000 504.000 245.000
v 240.000 504.000 245.000
f 649 650 651 652
f 653 656 655 654
f 649 653 654 650
f 650 654 655 651
f 651 655 656 652
f 653 649 652 656
o Imán_techo_724-620
usemtl magnet
v 579.200 496.000 241.000
v 587.200 496.000 241.000
v 587.200 504.000 241.000
v 579.200 504.000 241.000
v 579.200 496.000 245.000
v 587.200 496.000 245.000
v 587.200 504.000 245.000
v 579.200 504.000 245.000
f 657 658 659 660
f 661 664 663 662
f 657 661 662 658
f 658 662 663 659
f 659 663 664 660
f 661 657 660 664
o Bisagra_gabinete_izquierda
usemtl magnet
v 697.600 185.600 72.000
v 705.600 185.600 72.000
v 705.600 192.600 72.000
v 697.600 192.600 72.000
v 697.600 185.600 96.000
v 705.600 185.600 96.000
v 705.600 192.600 96.000
v 697.600 192.600 96.000
f 665 666 667 668
f 669 672 671 670
f 665 669 670 666
f 666 670 671 667
f 667 671 672 668
f 669 665 668 672
o Bisagra_gabinete_derecha
usemtl magnet
v 770.400 185.600 72.000
v 778.400 185.600 72.000
v 778.400 192.600 72.000
v 770.400 192.600 72.000
v 770.400 185.600 96.000
v 778.400 185.600 96.000
v 778.400 192.600 96.000
v 770.400 192.600 96.000
f 673 674 675 676
f 677 680 679 678
f 673 677 678 674
f 674 678 679 675
f 675 679 680 676
f 677 673 676 680
o Tallo_planta_48
usemtl green
v 40.800 266.400 61.000
v 44.800 266.400 61.000
v 44.800 270.400 61.000
v 40.800 270.400 61.000
v 40.800 266.400 123.000
v 44.800 266.400 123.000
v 44.800 270.400 123.000
v 40.800 270.400 123.000
f 681 682 683 684
f 685 688 687 686
f 681 685 686 682
f 682 686 687 683
f 683 687 688 684
f 685 681 684 688
o Hoja_A_planta_48
usemtl green
v 35.614 258.312 92.000
v 49.741 265.824 92.000
v 45.986 272.888 92.000
v 31.859 265.376 92.000
v 35.614 258.312 97.000
v 49.741 265.824 97.000
v 45.986 272.888 97.000
v 31.859 265.376 97.000
f 689 690 691 692
f 693 696 695 694
f 689 693 694 690
f 690 694 695 691
f 691 695 696 692
f 693 689 692 696
o Hoja_B_planta_48
usemtl green
v 38.334 273.525 108.000
v 54.412 266.367 108.000
v 57.666 273.675 108.000
v 41.588 280.833 108.000
v 38.334 273.525 113.000
v 54.412 266.367 113.000
v 57.666 273.675 113.000
v 41.588 280.833 113.000
f 697 698 699 700
f 701 704 703 702
f 697 701 702 698
f 698 702 703 699
f 699 703 704 700
f 701 697 700 704
o Tallo_planta_88
usemtl green
v 72.800 266.400 61.000
v 76.800 266.400 61.000
v 76.800 270.400 61.000
v 72.800 270.400 61.000
v 72.800 266.400 123.000
v 76.800 266.400 123.000
v 76.800 270.400 123.000
v 72.800 270.400 123.000
f 705 706 707 708
f 709 712 711 710
f 705 709 710 706
f 706 710 711 707
f 707 711 712 708
f 709 705 708 712
o Hoja_A_planta_88
usemtl green
v 67.614 258.312 92.000
v 81.741 265.824 92.000
v 77.986 272.888 92.000
v 63.859 265.376 92.000
v 67.614 258.312 97.000
v 81.741 265.824 97.000
v 77.986 272.888 97.000
v 63.859 265.376 97.000
f 713 714 715 716
f 717 720 719 718
f 713 717 718 714
f 714 718 719 715
f 715 719 720 716
f 717 713 716 720
o Hoja_B_planta_88
usemtl green
v 70.334 273.525 108.000
v 86.412 266.367 108.000
v 89.666 273.675 108.000
v 73.588 280.833 108.000
v 70.334 273.525 113.000
v 86.412 266.367 113.000
v 89.666 273.675 113.000
v 73.588 280.833 113.000
f 721 722 723 724
f 725 728 727 726
f 721 725 726 722
f 722 726 727 723
f 723 727 728 724
f 725 721 724 728
o Tallo_planta_172
usemtl green
v 140.000 266.400 61.000
v 144.000 266.400 61.000
v 144.000 270.400 61.000
v 140.000 270.400 61.000
v 140.000 266.400 123.000
v 144.000 266.400 123.000
v 144.000 270.400 123.000
v 140.000 270.400 123.000
f 729 730 731 732
f 733 736 735 734
f 729 733 734 730
f 730 734 735 731
f 731 735 736 732
f 733 729 732 736
o Hoja_A_planta_172
usemtl green
v 134.814 258.312 92.000
v 148.941 265.824 92.000
v 145.186 272.888 92.000
v 131.059 265.376 92.000
v 134.814 258.312 97.000
v 148.941 265.824 97.000
v 145.186 272.888 97.000
v 131.059 265.376 97.000
f 737 738 739 740
f 741 744 743 742
f 737 741 742 738
f 738 742 743 739
f 739 743 744 740
f 741 737 740 744
o Hoja_B_planta_172
usemtl green
v 137.534 273.525 108.000
v 153.612 266.367 108.000
v 156.866 273.675 108.000
v 140.788 280.833 108.000
v 137.534 273.525 113.000
v 153.612 266.367 113.000
v 156.866 273.675 113.000
v 140.788 280.833 113.000
f 745 746 747 748
f 749 752 751 750
f 745 749 750 746
f 746 750 751 747
f 747 751 752 748
f 749 745 748 752
o Tallo_planta_212
usemtl green
v 172.000 266.400 61.000
v 176.000 266.400 61.000
v 176.000 270.400 61.000
v 172.000 270.400 61.000
v 172.000 266.400 123.000
v 176.000 266.400 123.000
v 176.000 270.400 123.000
v 172.000 270.400 123.000
f 753 754 755 756
f 757 760 759 758
f 753 757 758 754
f 754 758 759 755
f 755 759 760 756
f 757 753 756 760
o Hoja_A_planta_212
usemtl green
v 166.814 258.312 92.000
v 180.941 265.824 92.000
v 177.186 272.888 92.000
v 163.059 265.376 92.000
v 166.814 258.312 97.000
v 180.941 265.824 97.000
v 177.186 272.888 97.000
v 163.059 265.376 97.000
f 761 762 763 764
f 765 768 767 766
f 761 765 766 762
f 762 766 767 763
f 763 767 768 764
f 765 761 764 768
o Hoja_B_planta_212
usemtl green
v 169.534 273.525 108.000
v 185.612 266.367 108.000
v 188.866 273.675 108.000
v 172.788 280.833 108.000
v 169.534 273.525 113.000
v 185.612 266.367 113.000
v 188.866 273.675 113.000
v 172.788 280.833 113.000
f 769 770 771 772
f 773 776 775 774
f 769 773 774 770
f 770 774 775 771
f 771 775 776 772
f 773 769 772 776
o Reserva_depósito
usemtl acrylic
v 20.000 52.000 13.000
v 112.000 52.000 13.000
v 112.000 144.000 13.000
v 20.000 144.000 13.000
v 20.000 52.000 16.000
v 112.000 52.000 16.000
v 112.000 144.000 16.000
v 20.000 144.000 16.000
f 777 778 779 780
f 781 784 783 782
f 777 781 782 778
f 778 782 783 779
f 779 783 784 780
f 781 777 780 784
o Reserva_bomba
usemtl acrylic
v 104.000 76.000 13.000
v 152.000 76.000 13.000
v 152.000 110.000 13.000
v 104.000 110.000 13.000
v 104.000 76.000 16.000
v 152.000 76.000 16.000
v 152.000 110.000 16.000
v 104.000 110.000 16.000
f 785 786 787 788
f 789 792 791 790
f 785 789 790 786
f 786 790 791 787
f 787 791 792 788
f 789 785 788 792
o Reserva_humedad_de_suelo
usemtl acrylic
v 84.000 328.000 18.000
v 98.000 328.000 18.000
v 98.000 342.000 18.000
v 84.000 342.000 18.000
v 84.000 328.000 21.000
v 98.000 328.000 21.000
v 98.000 342.000 21.000
v 84.000 342.000 21.000
f 793 794 795 796
f 797 800 799 798
f 793 797 798 794
f 794 798 799 795
f 795 799 800 796
f 797 793 796 800
o Reserva_panel_solar_izquierdo
usemtl acrylic
v 284.000 304.000 255.000
v 429.000 304.000 255.000
v 429.000 409.000 255.000
v 284.000 409.000 255.000
v 284.000 304.000 257.000
v 429.000 304.000 257.000
v 429.000 409.000 257.000
v 284.000 409.000 257.000
f 801 802 803 804
f 805 808 807 806
f 801 805 806 802
f 802 806 807 803
f 803 807 808 804
f 805 801 804 808
o Reserva_panel_solar_derecho
usemtl acrylic
v 428.000 304.000 255.000
v 573.000 304.000 255.000
v 573.000 409.000 255.000
v 428.000 409.000 255.000
v 428.000 304.000 257.000
v 573.000 304.000 257.000
v 573.000 409.000 257.000
v 428.000 409.000 257.000
f 809 810 811 812
f 813 816 815 814
f 809 813 814 810
f 810 814 815 811
f 811 815 816 812
f 813 809 812 816
o Reserva_PIR_de_entrada
usemtl acrylic
v 484.000 188.000 60.000
v 512.000 188.000 60.000
v 512.000 203.000 60.000
v 484.000 203.000 60.000
v 484.000 188.000 63.000
v 512.000 188.000 63.000
v 512.000 203.000 63.000
v 484.000 203.000 63.000
f 817 818 819 820
f 821 824 823 822
f 817 821 822 818
f 818 822 823 819
f 819 823 824 820
f 821 817 820 824
o Reserva_pantalla_Jarvis
usemtl acrylic
v 618.000 186.000 82.000
v 678.000 186.000 82.000
v 678.000 193.000 82.000
v 618.000 193.000 82.000
v 618.000 186.000 114.000
v 678.000 186.000 114.000
v 678.000 193.000 114.000
v 618.000 193.000 114.000
f 825 826 827 828
f 829 832 831 830
f 825 829 830 826
f 826 830 831 827
f 827 831 832 828
f 829 825 828 832
o Reserva_micrófono_Jarvis
usemtl acrylic
v 639.000 188.000 222.000
v 651.000 188.000 222.000
v 651.000 196.000 222.000
v 639.000 196.000 222.000
v 639.000 188.000 234.000
v 651.000 188.000 234.000
v 651.000 196.000 234.000
v 639.000 196.000 234.000
f 833 834 835 836
f 837 840 839 838
f 833 837 838 834
f 834 838 839 835
f 835 839 840 836
f 837 833 836 840
o Reserva_electrónica_gabinete
usemtl acrylic
v 710.000 250.000 55.000
v 774.000 250.000 55.000
v 774.000 346.000 55.000
v 710.000 346.000 55.000
v 710.000 250.000 58.000
v 774.000 250.000 58.000
v 774.000 346.000 58.000
v 710.000 346.000 58.000
f 841 842 843 844
f 845 848 847 846
f 841 845 846 842
f 842 846 847 843
f 843 847 848 844
f 845 841 844 848
o Reserva_DHT11_interior
usemtl acrylic
v 456.000 488.000 145.000
v 476.000 488.000 145.000
v 476.000 500.000 145.000
v 456.000 500.000 145.000
v 456.000 488.000 148.000
v 476.000 488.000 148.000
v 476.000 500.000 148.000
v 456.000 500.000 148.000
f 849 850 851 852
f 853 856 855 854
f 849 853 854 850
f 850 854 855 851
f 851 855 856 852
f 853 849 852 856
o Reserva_LDR_bajo_alero
usemtl acrylic
v 563.000 229.000 208.000
v 579.000 229.000 208.000
v 579.000 239.000 208.000
v 563.000 239.000 208.000
v 563.000 229.000 211.000
v 579.000 229.000 211.000
v 579.000 239.000 211.000
v 563.000 239.000 211.000
f 857 858 859 860
f 861 864 863 862
f 857 861 862 858
f 858 862 863 859
f 859 863 864 860
f 861 857 860 864
o Reserva_luz_sala
usemtl acrylic
v 340.000 416.000 220.000
v 358.000 416.000 220.000
v 358.000 434.000 220.000
v 340.000 434.000 220.000
v 340.000 416.000 223.000
v 358.000 416.000 223.000
v 358.000 434.000 223.000
v 340.000 434.000 223.000
f 865 866 867 868
f 869 872 871 870
f 865 869 870 866
f 866 870 871 867
f 867 871 872 868
f 869 865 868 872
o Reserva_luz_dormitorio
usemtl acrylic
v 492.000 416.000 220.000
v 510.000 416.000 220.000
v 510.000 434.000 220.000
v 492.000 434.000 220.000
v 492.000 416.000 223.000
v 510.000 416.000 223.000
v 510.000 434.000 223.000
v 492.000 434.000 223.000
f 873 874 875 876
f 877 880 879 878
f 873 877 878 874
f 874 878 879 875
f 875 879 880 876
f 877 873 876 880
o Reserva_luz_invernadero
usemtl acrylic
v 114.000 336.000 218.000
v 132.000 336.000 218.000
v 132.000 354.000 218.000
v 114.000 354.000 218.000
v 114.000 336.000 221.000
v 132.000 336.000 221.000
v 132.000 354.000 221.000
v 114.000 354.000 221.000
f 881 882 883 884
f 885 888 887 886
f 881 885 886 882
f 882 886 887 883
f 883 887 888 884
f 885 881 884 888
