mtllib project_domus.mtl
# PROJECT DOMUS two-storey offline model
o Base_1000x700
usemtl base
v 0.000 0.000 0.000
v 1000.000 0.000 0.000
v 1000.000 700.000 0.000
v 0.000 700.000 0.000
v 0.000 0.000 9.000
v 1000.000 0.000 9.000
v 1000.000 700.000 9.000
v 0.000 700.000 9.000
f 1 2 3 4
f 5 8 7 6
f 1 5 6 2
f 2 6 7 3
f 3 7 8 4
f 5 1 4 8
o Canal_principal_de_cables
usemtl blue
v 330.000 20.000 9.000
v 970.000 20.000 9.000
v 970.000 50.000 9.000
v 330.000 50.000 9.000
v 330.000 20.000 24.000
v 970.000 20.000 24.000
v 970.000 50.000 24.000
v 330.000 50.000 24.000
f 9 10 11 12
f 13 16 15 14
f 9 13 14 10
f 10 14 15 11
f 11 15 16 12
f 13 9 12 16
o Entrada_cubierta
usemtl wood
v 350.000 55.000 9.000
v 620.000 55.000 9.000
v 620.000 260.000 9.000
v 350.000 260.000 9.000
v 350.000 55.000 17.000
v 620.000 55.000 17.000
v 620.000 260.000 17.000
v 350.000 260.000 17.000
f 17 18 19 20
f 21 24 23 22
f 17 21 22 18
f 18 22 23 19
f 19 23 24 20
f 21 17 20 24
o Rampa_de_acceso
usemtl wood_light
v 350.000 15.000 9.000
v 445.000 15.000 9.000
v 445.000 55.000 9.000
v 350.000 55.000 9.000
v 350.000 15.000 14.000
v 445.000 15.000 14.000
v 445.000 55.000 14.000
v 350.000 55.000 14.000
f 25 26 27 28
f 29 32 31 30
f 25 29 30 26
f 26 30 31 27
f 27 31 32 28
f 29 25 28 32
o Piso_planta_baja
usemtl floor
v 350.000 290.000 9.000
v 970.000 290.000 9.000
v 970.000 670.000 9.000
v 350.000 670.000 9.000
v 350.000 290.000 15.000
v 970.000 290.000 15.000
v 970.000 670.000 15.000
v 350.000 670.000 15.000
f 33 34 35 36
f 37 40 39 38
f 33 37 38 34
f 34 38 39 35
f 35 39 40 36
f 37 33 36 40
o PB_muro_posterior
usemtl wood_light
v 350.000 667.000 15.000
v 970.000 667.000 15.000
v 970.000 670.000 15.000
v 350.000 670.000 15.000
v 350.000 667.000 235.000
v 970.000 667.000 235.000
v 970.000 670.000 235.000
v 350.000 670.000 235.000
f 41 42 43 44
f 45 48 47 46
f 41 45 46 42
f 42 46 47 43
f 43 47 48 44
f 45 41 44 48
o PB_muro_lateral_izquierdo
usemtl wood_light
v 350.000 290.000 15.000
v 353.000 290.000 15.000
v 353.000 670.000 15.000
v 350.000 670.000 15.000
v 350.000 290.000 235.000
v 353.000 290.000 235.000
v 353.000 670.000 235.000
v 350.000 670.000 235.000
f 49 50 51 52
f 53 56 55 54
f 49 53 54 50
f 50 54 55 51
f 51 55 56 52
f 53 49 52 56
o PB_muro_lateral_derecho
usemtl wood_light
v 967.000 290.000 15.000
v 970.000 290.000 15.000
v 970.000 670.000 15.000
v 967.000 670.000 15.000
v 967.000 290.000 235.000
v 970.000 290.000 235.000
v 970.000 670.000 235.000
v 967.000 670.000 235.000
f 57 58 59 60
f 61 64 63 62
f 57 61 62 58
f 58 62 63 59
f 59 63 64 60
f 61 57 60 64
o PB_frente_izquierdo
usemtl wood_light
v 350.000 290.000 15.000
v 420.000 290.000 15.000
v 420.000 293.000 15.000
v 350.000 293.000 15.000
v 350.000 290.000 235.000
v 420.000 290.000 235.000
v 420.000 293.000 235.000
v 350.000 293.000 235.000
f 65 66 67 68
f 69 72 71 70
f 65 69 70 66
f 66 70 71 67
f 67 71 72 68
f 69 65 68 72
o PB_frente_central
usemtl wood_light
v 610.000 290.000 15.000
v 665.000 290.000 15.000
v 665.000 293.000 15.000
v 610.000 293.000 15.000
v 610.000 290.000 235.000
v 665.000 290.000 235.000
v 665.000 293.000 235.000
v 610.000 293.000 235.000
f 73 74 75 76
f 77 80 79 78
f 73 77 78 74
f 74 78 79 75
f 75 79 80 76
f 77 73 76 80
o PB_frente_derecho
usemtl wood_light
v 910.000 290.000 15.000
v 970.000 290.000 15.000
v 970.000 293.000 15.000
v 910.000 293.000 15.000
v 910.000 290.000 235.000
v 970.000 290.000 235.000
v 970.000 293.000 235.000
v 910.000 293.000 235.000
f 81 82 83 84
f 85 88 87 86
f 81 85 86 82
f 82 86 87 83
f 83 87 88 84
f 85 81 84 88
o División_sala-cocina
usemtl wood_light
v 350.000 500.000 15.000
v 780.000 500.000 15.000
v 780.000 503.000 15.000
v 350.000 503.000 15.000
v 350.000 500.000 175.000
v 780.000 500.000 175.000
v 780.000 503.000 175.000
v 350.000 503.000 175.000
f 89 90 91 92
f 93 96 95 94
f 89 93 94 90
f 90 94 95 91
f 91 95 96 92
f 93 89 92 96
o Barra_cocina
usemtl wood
v 650.000 520.000 15.000
v 685.000 520.000 15.000
v 685.000 640.000 15.000
v 650.000 640.000 15.000
v 650.000 520.000 95.000
v 685.000 520.000 95.000
v 685.000 640.000 95.000
v 650.000 640.000 95.000
f 97 98 99 100
f 101 104 103 102
f 97 101 102 98
f 98 102 103 99
f 99 103 104 100
f 101 97 100 104
o Mueble_cocina
usemtl wood
v 390.000 610.000 15.000
v 620.000 610.000 15.000
v 620.000 655.000 15.000
v 390.000 655.000 15.000
v 390.000 610.000 90.000
v 620.000 610.000 90.000
v 620.000 655.000 90.000
v 390.000 655.000 90.000
f 105 106 107 108
f 109 112 111 110
f 105 109 110 106
f 106 110 111 107
f 107 111 112 108
f 109 105 108 112
o Sofá_sala
usemtl blue
v 440.000 350.000 15.000
v 590.000 350.000 15.000
v 590.000 415.000 15.000
v 440.000 415.000 15.000
v 440.000 350.000 70.000
v 590.000 350.000 70.000
v 590.000 415.000 70.000
v 440.000 415.000 70.000
f 113 114 115 116
f 117 120 119 118
f 113 117 118 114
f 114 118 119 115
f 115 119 120 116
f 117 113 116 120
o Mesa_sala
usemtl wood
v 610.000 380.000 15.000
v 690.000 380.000 15.000
v 690.000 435.000 15.000
v 610.000 435.000 15.000
v 610.000 380.000 50.000
v 690.000 380.000 50.000
v 690.000 435.000 50.000
v 610.000 435.000 50.000
f 121 122 123 124
f 125 128 127 126
f 121 125 126 122
f 122 126 127 123
f 123 127 128 124
f 125 121 124 128
o Entrepiso_removible
usemtl floor
v 350.000 290.000 235.000
v 970.000 290.000 235.000
v 970.000 670.000 235.000
v 350.000 670.000 235.000
v 350.000 290.000 241.000
v 970.000 290.000 241.000
v 970.000 670.000 241.000
v 350.000 670.000 241.000
f 129 130 131 132
f 133 136 135 134
f 129 133 134 130
f 130 134 135 131
f 131 135 136 132
f 133 129 132 136
o PA_muro_posterior
usemtl wood_light
v 350.000 667.000 241.000
v 970.000 667.000 241.000
v 970.000 670.000 241.000
v 350.000 670.000 241.000
v 350.000 667.000 451.000
v 970.000 667.000 451.000
v 970.000 670.000 451.000
v 350.000 670.000 451.000
f 137 138 139 140
f 141 144 143 142
f 137 141 142 138
f 138 142 143 139
f 139 143 144 140
f 141 137 140 144
o PA_muro_lateral_izquierdo
usemtl wood_light
v 350.000 290.000 241.000
v 353.000 290.000 241.000
v 353.000 670.000 241.000
v 350.000 670.000 241.000
v 350.000 290.000 451.000
v 353.000 290.000 451.000
v 353.000 670.000 451.000
v 350.000 670.000 451.000
f 145 146 147 148
f 149 152 151 150
f 145 149 150 146
f 146 150 151 147
f 147 151 152 148
f 149 145 148 152
o PA_muro_lateral_derecho
usemtl wood_light
v 967.000 290.000 241.000
v 970.000 290.000 241.000
v 970.000 670.000 241.000
v 967.000 670.000 241.000
v 967.000 290.000 451.000
v 970.000 290.000 451.000
v 970.000 670.000 451.000
v 967.000 670.000 451.000
f 153 154 155 156
f 157 160 159 158
f 153 157 158 154
f 154 158 159 155
f 155 159 160 156
f 157 153 156 160
o PA_frente_izquierdo
usemtl wood_light
v 350.000 290.000 241.000
v 430.000 290.000 241.000
v 430.000 293.000 241.000
v 350.000 293.000 241.000
v 350.000 290.000 451.000
v 430.000 290.000 451.000
v 430.000 293.000 451.000
v 350.000 293.000 451.000
f 161 162 163 164
f 165 168 167 166
f 161 165 166 162
f 162 166 167 163
f 163 167 168 164
f 165 161 164 168
o PA_frente_central
usemtl wood_light
v 700.000 290.000 241.000
v 755.000 290.000 241.000
v 755.000 293.000 241.000
v 700.000 293.000 241.000
v 700.000 290.000 451.000
v 755.000 290.000 451.000
v 755.000 293.000 451.000
v 700.000 293.000 451.000
f 169 170 171 172
f 173 176 175 174
f 169 173 174 170
f 170 174 175 171
f 171 175 176 172
f 173 169 172 176
o PA_frente_derecho
usemtl wood_light
v 920.000 290.000 241.000
v 970.000 290.000 241.000
v 970.000 293.000 241.000
v 920.000 293.000 241.000
v 920.000 290.000 451.000
v 970.000 290.000 451.000
v 970.000 293.000 451.000
v 920.000 293.000 451.000
f 177 178 179 180
f 181 184 183 182
f 177 181 182 178
f 178 182 183 179
f 179 183 184 180
f 181 177 180 184
o División_dormitorio-baño
usemtl wood_light
v 760.000 290.000 241.000
v 763.000 290.000 241.000
v 763.000 670.000 241.000
v 760.000 670.000 241.000
v 760.000 290.000 451.000
v 763.000 290.000 451.000
v 763.000 670.000 451.000
v 760.000 670.000 451.000
f 185 186 187 188
f 189 192 191 190
f 185 189 190 186
f 186 190 191 187
f 187 191 192 188
f 189 185 188 192
o Cama_dormitorio
usemtl white
v 450.000 390.000 241.000
v 670.000 390.000 241.000
v 670.000 540.000 241.000
v 450.000 540.000 241.000
v 450.000 390.000 286.000
v 670.000 390.000 286.000
v 670.000 540.000 286.000
v 450.000 540.000 286.000
f 193 194 195 196
f 197 200 199 198
f 193 197 198 194
f 194 198 199 195
f 195 199 200 196
f 197 193 196 200
o Ducha
usemtl glass
v 800.000 520.000 241.000
v 920.000 520.000 241.000
v 920.000 630.000 241.000
v 800.000 630.000 241.000
v 800.000 520.000 259.000
v 920.000 520.000 259.000
v 920.000 630.000 259.000
v 800.000 630.000 259.000
f 201 202 203 204
f 205 208 207 206
f 201 205 206 202
f 202 206 207 203
f 203 207 208 204
f 205 201 204 208
o Techo_removible
usemtl roof
v 340.000 280.000 451.000
v 980.000 280.000 451.000
v 980.000 680.000 451.000
v 340.000 680.000 451.000
v 340.000 280.000 459.000
v 980.000 280.000 459.000
v 980.000 680.000 459.000
v 340.000 680.000 459.000
f 209 210 211 212
f 213 216 215 214
f 209 213 214 210
f 210 214 215 211
f 211 215 216 212
f 213 209 212 216
o Panel_solar_único
usemtl solar
v 545.000 390.000 460.000
v 785.000 390.000 460.000
v 785.000 530.000 460.000
v 545.000 530.000 460.000
v 545.000 390.000 468.000
v 785.000 390.000 468.000
v 785.000 530.000 468.000
v 545.000 530.000 468.000
f 217 218 219 220
f 221 224 223 222
f 217 221 222 218
f 218 222 223 219
f 219 223 224 220
f 221 217 220 224
o Escalón_1
usemtl wood
v 805.000 330.000 15.000
v 817.000 330.000 15.000
v 817.000 405.000 15.000
v 805.000 405.000 15.000
v 805.000 330.000 33.000
v 817.000 330.000 33.000
v 817.000 405.000 33.000
v 805.000 405.000 33.000
f 225 226 227 228
f 229 232 231 230
f 225 229 230 226
f 226 230 231 227
f 227 231 232 228
f 229 225 228 232
o Escalón_2
usemtl wood
v 817.000 330.000 33.000
v 829.000 330.000 33.000
v 829.000 405.000 33.000
v 817.000 405.000 33.000
v 817.000 330.000 51.000
v 829.000 330.000 51.000
v 829.000 405.000 51.000
v 817.000 405.000 51.000
f 233 234 235 236
f 237 240 239 238
f 233 237 238 234
f 234 238 239 235
f 235 239 240 236
f 237 233 236 240
o Escalón_3
usemtl wood
v 829.000 330.000 51.000
v 841.000 330.000 51.000
v 841.000 405.000 51.000
v 829.000 405.000 51.000
v 829.000 330.000 69.000
v 841.000 330.000 69.000
v 841.000 405.000 69.000
v 829.000 405.000 69.000
f 241 242 243 244
f 245 248 247 246
f 241 245 246 242
f 242 246 247 243
f 243 247 248 244
f 245 241 244 248
o Escalón_4
usemtl wood
v 841.000 330.000 69.000
v 853.000 330.000 69.000
v 853.000 405.000 69.000
v 841.000 405.000 69.000
v 841.000 330.000 87.000
v 853.000 330.000 87.000
v 853.000 405.000 87.000
v 841.000 405.000 87.000
f 249 250 251 252
f 253 256 255 254
f 249 253 254 250
f 250 254 255 251
f 251 255 256 252
f 253 249 252 256
o Escalón_5
usemtl wood
v 853.000 330.000 87.000
v 865.000 330.000 87.000
v 865.000 405.000 87.000
v 853.000 405.000 87.000
v 853.000 330.000 105.000
v 865.000 330.000 105.000
v 865.000 405.000 105.000
v 853.000 405.000 105.000
f 257 258 259 260
f 261 264 263 262
f 257 261 262 258
f 258 262 263 259
f 259 263 264 260
f 261 257 260 264
o Escalón_6
usemtl wood
v 865.000 330.000 105.000
v 877.000 330.000 105.000
v 877.000 405.000 105.000
v 865.000 405.000 105.000
v 865.000 330.000 123.000
v 877.000 330.000 123.000
v 877.000 405.000 123.000
v 865.000 405.000 123.000
f 265 266 267 268
f 269 272 271 270
f 265 269 270 266
f 266 270 271 267
f 267 271 272 268
f 269 265 268 272
o Escalón_7
usemtl wood
v 877.000 330.000 123.000
v 889.000 330.000 123.000
v 889.000 405.000 123.000
v 877.000 405.000 123.000
v 877.000 330.000 141.000
v 889.000 330.000 141.000
v 889.000 405.000 141.000
v 877.000 405.000 141.000
f 273 274 275 276
f 277 280 279 278
f 273 277 278 274
f 274 278 279 275
f 275 279 280 276
f 277 273 276 280
o Escalón_8
usemtl wood
v 889.000 330.000 141.000
v 901.000 330.000 141.000
v 901.000 405.000 141.000
v 889.000 405.000 141.000
v 889.000 330.000 159.000
v 901.000 330.000 159.000
v 901.000 405.000 159.000
v 889.000 405.000 159.000
f 281 282 283 284
f 285 288 287 286
f 281 285 286 282
f 282 286 287 283
f 283 287 288 284
f 285 281 284 288
o Escalón_9
usemtl wood
v 901.000 330.000 159.000
v 913.000 330.000 159.000
v 913.000 405.000 159.000
v 901.000 405.000 159.000
v 901.000 330.000 177.000
v 913.000 330.000 177.000
v 913.000 405.000 177.000
v 901.000 405.000 177.000
f 289 290 291 292
f 293 296 295 294
f 289 293 294 290
f 290 294 295 291
f 291 295 296 292
f 293 289 292 296
o Escalón_10
usemtl wood
v 913.000 330.000 177.000
v 925.000 330.000 177.000
v 925.000 405.000 177.000
v 913.000 405.000 177.000
v 913.000 330.000 195.000
v 925.000 330.000 195.000
v 925.000 405.000 195.000
v 913.000 405.000 195.000
f 297 298 299 300
f 301 304 303 302
f 297 301 302 298
f 298 302 303 299
f 299 303 304 300
f 301 297 300 304
o Escalón_11
usemtl wood
v 925.000 330.000 195.000
v 937.000 330.000 195.000
v 937.000 405.000 195.000
v 925.000 405.000 195.000
v 925.000 330.000 213.000
v 937.000 330.000 213.000
v 937.000 405.000 213.000
v 925.000 405.000 213.000
f 305 306 307 308
f 309 312 311 310
f 305 309 310 306
f 306 310 311 307
f 307 311 312 308
f 309 305 308 312
o Escalón_12
usemtl wood
v 937.000 330.000 213.000
v 949.000 330.000 213.000
v 949.000 405.000 213.000
v 937.000 405.000 213.000
v 937.000 330.000 231.000
v 949.000 330.000 231.000
v 949.000 405.000 231.000
v 937.000 405.000 231.000
f 313 314 315 316
f 317 320 319 318
f 313 317 318 314
f 314 318 319 315
f 315 319 320 316
f 317 313 316 320
o Invernadero_base
usemtl wood
v 25.000 220.000 9.000
v 315.000 220.000 9.000
v 315.000 670.000 9.000
v 25.000 670.000 9.000
v 25.000 220.000 17.000
v 315.000 220.000 17.000
v 315.000 670.000 17.000
v 25.000 670.000 17.000
f 321 322 323 324
f 325 328 327 326
f 321 325 326 322
f 322 326 327 323
f 323 327 328 324
f 325 321 324 328
o Cama_de_cultivo
usemtl soil
v 60.000 285.000 17.000
v 280.000 285.000 17.000
v 280.000 595.000 17.000
v 60.000 595.000 17.000
v 60.000 285.000 72.000
v 280.000 285.000 72.000
v 280.000 595.000 72.000
v 60.000 595.000 72.000
f 329 330 331 332
f 333 336 335 334
f 329 333 334 330
f 330 334 335 331
f 331 335 336 332
f 333 329 332 336
o Invernadero_pared_izquierda
usemtl glass
v 25.000 220.000 17.000
v 28.000 220.000 17.000
v 28.000 670.000 17.000
v 25.000 670.000 17.000
v 25.000 220.000 242.000
v 28.000 220.000 242.000
v 28.000 670.000 242.000
v 25.000 670.000 242.000
f 337 338 339 340
f 341 344 343 342
f 337 341 342 338
f 338 342 343 339
f 339 343 344 340
f 341 337 340 344
o Invernadero_pared_derecha
usemtl glass
v 312.000 220.000 17.000
v 315.000 220.000 17.000
v 315.000 670.000 17.000
v 312.000 670.000 17.000
v 312.000 220.000 242.000
v 315.000 220.000 242.000
v 315.000 670.000 242.000
v 312.000 670.000 242.000
f 345 346 347 348
f 349 352 351 350
f 345 349 350 346
f 346 350 351 347
f 347 351 352 348
f 349 345 348 352
o Invernadero_frente
usemtl glass
v 25.000 220.000 17.000
v 315.000 220.000 17.000
v 315.000 223.000 17.000
v 25.000 223.000 17.000
v 25.000 220.000 242.000
v 315.000 220.000 242.000
v 315.000 223.000 242.000
v 25.000 223.000 242.000
f 353 354 355 356
f 357 360 359 358
f 353 357 358 354
f 354 358 359 355
f 355 359 360 356
f 357 353 356 360
o Invernadero_fondo
usemtl glass
v 25.000 667.000 17.000
v 315.000 667.000 17.000
v 315.000 670.000 17.000
v 25.000 670.000 17.000
v 25.000 667.000 242.000
v 315.000 667.000 242.000
v 315.000 670.000 242.000
v 25.000 670.000 242.000
f 361 362 363 364
f 365 368 367 366
f 361 365 366 362
f 362 366 367 363
f 363 367 368 364
f 365 361 364 368
o Cubierta_invernadero_A
usemtl glass
v 25.000 220.000 242.000
v 170.000 220.000 242.000
v 170.000 670.000 242.000
v 25.000 670.000 242.000
v 25.000 220.000 245.000
v 170.000 220.000 245.000
v 170.000 670.000 245.000
v 25.000 670.000 245.000
f 369 370 371 372
f 373 376 375 374
f 369 373 374 370
f 370 374 375 371
f 371 375 376 372
f 373 369 372 376
o Cubierta_invernadero_B
usemtl glass
v 170.000 220.000 242.000
v 315.000 220.000 242.000
v 315.000 670.000 242.000
v 170.000 670.000 242.000
v 170.000 220.000 245.000
v 315.000 220.000 245.000
v 315.000 670.000 245.000
v 170.000 670.000 245.000
f 377 378 379 380
f 381 384 383 382
f 377 381 382 378
f 378 382 383 379
f 379 383 384 380
f 381 377 380 384
o Depósito_de_agua
usemtl water
v 55.000 90.000 9.000
v 165.000 90.000 9.000
v 165.000 185.000 9.000
v 55.000 185.000 9.000
v 55.000 90.000 129.000
v 165.000 90.000 129.000
v 165.000 185.000 129.000
v 55.000 185.000 129.000
f 385 386 387 388
f 389 392 391 390
f 385 389 390 386
f 386 390 391 387
f 387 391 392 388
f 389 385 388 392
o Mini_bomba
usemtl blue
v 180.000 125.000 9.000
v 230.000 125.000 9.000
v 230.000 160.000 9.000
v 180.000 160.000 9.000
v 180.000 125.000 44.000
v 230.000 125.000 44.000
v 230.000 160.000 44.000
v 180.000 160.000 44.000
f 393 394 395 396
f 397 400 399 398
f 393 397 398 394
f 394 398 399 395
f 395 399 400 396
f 397 393 396 400
o Tubería_principal
usemtl blue_light
v 135.000 175.000 45.000
v 290.000 175.000 45.000
v 290.000 187.000 45.000
v 135.000 187.000 45.000
v 135.000 175.000 57.000
v 290.000 175.000 57.000
v 290.000 187.000 57.000
v 135.000 187.000 57.000
f 401 402 403 404
f 405 408 407 406
f 401 405 406 402
f 402 406 407 403
f 403 407 408 404
f 405 401 404 408
o Sensor_humedad_suelo
usemtl metal
v 155.000 420.000 72.000
v 167.000 420.000 72.000
v 167.000 432.000 72.000
v 155.000 432.000 72.000
v 155.000 420.000 157.000
v 167.000 420.000 157.000
v 167.000 432.000 157.000
v 155.000 432.000 157.000
f 409 410 411 412
f 413 416 415 414
f 409 413 414 410
f 410 414 415 411
f 411 415 416 412
f 413 409 412 416
o Sensor_nivel
usemtl metal
v 95.000 105.000 65.000
v 103.000 105.000 65.000
v 103.000 113.000 65.000
v 95.000 113.000 65.000
v 95.000 105.000 150.000
v 103.000 105.000 150.000
v 103.000 113.000 150.000
v 95.000 113.000 150.000
f 417 418 419 420
f 421 424 423 422
f 417 421 422 418
f 418 422 423 419
f 419 423 424 420
f 421 417 420 424
o Torre_Jarvis_cuerpo
usemtl roof
v 650.000 40.000 9.000
v 790.000 40.000 9.000
v 790.000 260.000 9.000
v 650.000 260.000 9.000
v 650.000 40.000 329.000
v 790.000 40.000 329.000
v 790.000 260.000 329.000
v 650.000 260.000 329.000
f 425 426 427 428
f 429 432 431 430
f 425 429 430 426
f 426 430 431 427
f 427 431 432 428
f 429 425 428 432
o Torre_panel_azul_izquierdo
usemtl blue
v 654.000 36.000 80.000
v 689.000 36.000 80.000
v 689.000 41.000 80.000
v 654.000 41.000 80.000
v 654.000 36.000 285.000
v 689.000 36.000 285.000
v 689.000 41.000 285.000
v 654.000 41.000 285.000
f 433 434 435 436
f 437 440 439 438
f 433 437 438 434
f 434 438 439 435
f 435 439 440 436
f 437 433 436 440
o Torre_panel_azul_derecho
usemtl blue
v 751.000 36.000 80.000
v 786.000 36.000 80.000
v 786.000 41.000 80.000
v 751.000 41.000 80.000
v 751.000 36.000 285.000
v 786.000 36.000 285.000
v 786.000 41.000 285.000
v 751.000 41.000 285.000
f 441 442 443 444
f 445 448 447 446
f 441 445 446 442
f 442 446 447 443
f 443 447 448 444
f 445 441 444 448
o Altavoz_frontal
usemtl metal
v 690.000 35.000 175.000
v 750.000 35.000 175.000
v 750.000 41.000 175.000
v 690.000 41.000 175.000
v 690.000 35.000 235.000
v 750.000 35.000 235.000
v 750.000 41.000 235.000
v 690.000 41.000 235.000
f 449 450 451 452
f 453 456 455 454
f 449 453 454 450
f 450 454 455 451
f 451 455 456 452
f 453 449 452 456
o LCD_estado
usemtl blue_light
v 675.000 34.000 95.000
v 765.000 34.000 95.000
v 765.000 40.000 95.000
v 675.000 40.000 95.000
v 675.000 34.000 140.000
v 765.000 34.000 140.000
v 765.000 40.000 140.000
v 675.000 40.000 140.000
f 457 458 459 460
f 461 464 463 462
f 457 461 462 458
f 458 462 463 459
f 459 463 464 460
f 461 457 460 464
o Botón_MIC_OFF
usemtl red
v 705.000 30.000 45.000
v 735.000 30.000 45.000
v 735.000 42.000 45.000
v 705.000 42.000 45.000
v 705.000 30.000 75.000
v 735.000 30.000 75.000
v 735.000 42.000 75.000
v 705.000 42.000 75.000
f 465 466 467 468
f 469 472 471 470
f 465 469 470 466
f 466 470 471 467
f 467 471 472 468
f 469 465 468 472
o INMP441
usemtl electronics
v 715.000 34.000 280.000
v 725.000 34.000 280.000
v 725.000 40.000 280.000
v 715.000 40.000 280.000
v 715.000 34.000 288.000
v 725.000 34.000 288.000
v 725.000 40.000 288.000
v 715.000 40.000 288.000
f 473 474 475 476
f 477 480 479 478
f 473 477 478 474
f 474 478 479 475
f 475 479 480 476
f 477 473 476 480
o LED_aro_1
usemtl blue_light
v 749.000 31.000 276.000
v 757.000 31.000 276.000
v 757.000 36.000 276.000
v 749.000 36.000 276.000
v 749.000 31.000 284.000
v 757.000 31.000 284.000
v 757.000 36.000 284.000
v 749.000 36.000 284.000
f 481 482 483 484
f 485 488 487 486
f 481 485 486 482
f 482 486 487 483
f 483 487 488 484
f 485 481 484 488
o LED_aro_2
usemtl blue_light
v 743.909 31.000 295.000
v 751.909 31.000 295.000
v 751.909 36.000 295.000
v 743.909 36.000 295.000
v 743.909 31.000 303.000
v 751.909 31.000 303.000
v 751.909 36.000 303.000
v 743.909 36.000 303.000
f 489 490 491 492
f 493 496 495 494
f 489 493 494 490
f 490 494 495 491
f 491 495 496 492
f 493 489 492 496
o LED_aro_3
usemtl blue_light
v 730.000 31.000 308.909
v 738.000 31.000 308.909
v 738.000 36.000 308.909
v 730.000 36.000 308.909
v 730.000 31.000 316.909
v 738.000 31.000 316.909
v 738.000 36.000 316.909
v 730.000 36.000 316.909
f 497 498 499 500
f 501 504 503 502
f 497 501 502 498
f 498 502 503 499
f 499 503 504 500
f 501 497 500 504
o LED_aro_4
usemtl blue_light
v 711.000 31.000 314.000
v 719.000 31.000 314.000
v 719.000 36.000 314.000
v 711.000 36.000 314.000
v 711.000 31.000 322.000
v 719.000 31.000 322.000
v 719.000 36.000 322.000
v 711.000 36.000 322.000
f 505 506 507 508
f 509 512 511 510
f 505 509 510 506
f 506 510 511 507
f 507 511 512 508
f 509 505 508 512
o LED_aro_5
usemtl blue_light
v 692.000 31.000 308.909
v 700.000 31.000 308.909
v 700.000 36.000 308.909
v 692.000 36.000 308.909
v 692.000 31.000 316.909
v 700.000 31.000 316.909
v 700.000 36.000 316.909
v 692.000 36.000 316.909
f 513 514 515 516
f 517 520 519 518
f 513 517 518 514
f 514 518 519 515
f 515 519 520 516
f 517 513 516 520
o LED_aro_6
usemtl blue_light
v 678.091 31.000 295.000
v 686.091 31.000 295.000
v 686.091 36.000 295.000
v 678.091 36.000 295.000
v 678.091 31.000 303.000
v 686.091 31.000 303.000
v 686.091 36.000 303.000
v 678.091 36.000 303.000
f 521 522 523 524
f 525 528 527 526
f 521 525 526 522
f 522 526 527 523
f 523 527 528 524
f 525 521 524 528
o LED_aro_7
usemtl blue_light
v 673.000 31.000 276.000
v 681.000 31.000 276.000
v 681.000 36.000 276.000
v 673.000 36.000 276.000
v 673.000 31.000 284.000
v 681.000 31.000 284.000
v 681.000 36.000 284.000
v 673.000 36.000 284.000
f 529 530 531 532
f 533 536 535 534
f 529 533 534 530
f 530 534 535 531
f 531 535 536 532
f 533 529 532 536
o LED_aro_8
usemtl blue_light
v 678.091 31.000 257.000
v 686.091 31.000 257.000
v 686.091 36.000 257.000
v 678.091 36.000 257.000
v 678.091 31.000 265.000
v 686.091 31.000 265.000
v 686.091 36.000 265.000
v 678.091 36.000 265.000
f 537 538 539 540
f 541 544 543 542
f 537 541 542 538
f 538 542 543 539
f 539 543 544 540
f 541 537 540 544
o LED_aro_9
usemtl blue_light
v 692.000 31.000 243.091
v 700.000 31.000 243.091
v 700.000 36.000 243.091
v 692.000 36.000 243.091
v 692.000 31.000 251.091
v 700.000 31.000 251.091
v 700.000 36.000 251.091
v 692.000 36.000 251.091
f 545 546 547 548
f 549 552 551 550
f 545 549 550 546
f 546 550 551 547
f 547 551 552 548
f 549 545 548 552
o LED_aro_10
usemtl blue_light
v 711.000 31.000 238.000
v 719.000 31.000 238.000
v 719.000 36.000 238.000
v 711.000 36.000 238.000
v 711.000 31.000 246.000
v 719.000 31.000 246.000
v 719.000 36.000 246.000
v 711.000 36.000 246.000
f 553 554 555 556
f 557 560 559 558
f 553 557 558 554
f 554 558 559 555
f 555 559 560 556
f 557 553 556 560
o LED_aro_11
usemtl blue_light
v 730.000 31.000 243.091
v 738.000 31.000 243.091
v 738.000 36.000 243.091
v 730.000 36.000 243.091
v 730.000 31.000 251.091
v 738.000 31.000 251.091
v 738.000 36.000 251.091
v 730.000 36.000 251.091
f 561 562 563 564
f 565 568 567 566
f 561 565 566 562
f 562 566 567 563
f 563 567 568 564
f 565 561 564 568
o LED_aro_12
usemtl blue_light
v 743.909 31.000 257.000
v 751.909 31.000 257.000
v 751.909 36.000 257.000
v 743.909 36.000 257.000
v 743.909 31.000 265.000
v 751.909 31.000 265.000
v 751.909 36.000 265.000
v 743.909 36.000 265.000
f 569 570 571 572
f 573 576 575 574
f 569 573 574 570
f 570 574 575 571
f 571 575 576 572
f 573 569 572 576
o Bahía_técnica_base
usemtl metal
v 810.000 40.000 9.000
v 970.000 40.000 9.000
v 970.000 260.000 9.000
v 810.000 260.000 9.000
v 810.000 40.000 17.000
v 970.000 40.000 17.000
v 970.000 260.000 17.000
v 810.000 260.000 17.000
f 577 578 579 580
f 581 584 583 582
f 577 581 582 578
f 578 582 583 579
f 579 583 584 580
f 581 577 580 584
o Bahía_técnica_fondo
usemtl wood
v 810.000 255.000 17.000
v 970.000 255.000 17.000
v 970.000 258.000 17.000
v 810.000 258.000 17.000
v 810.000 255.000 297.000
v 970.000 255.000 297.000
v 970.000 258.000 297.000
v 810.000 258.000 297.000
f 585 586 587 588
f 589 592 591 590
f 585 589 590 586
f 586 590 591 587
f 587 591 592 588
f 589 585 588 592
o Bahía_lateral_izquierda
usemtl glass
v 810.000 40.000 17.000
v 813.000 40.000 17.000
v 813.000 260.000 17.000
v 810.000 260.000 17.000
v 810.000 40.000 297.000
v 813.000 40.000 297.000
v 813.000 260.000 297.000
v 810.000 260.000 297.000
f 593 594 595 596
f 597 600 599 598
f 593 597 598 594
f 594 598 599 595
f 595 599 600 596
f 597 593 596 600
o Bahía_lateral_derecha
usemtl glass
v 967.000 40.000 17.000
v 970.000 40.000 17.000
v 970.000 260.000 17.000
v 967.000 260.000 17.000
v 967.000 40.000 297.000
v 970.000 40.000 297.000
v 970.000 260.000 297.000
v 967.000 260.000 297.000
f 601 602 603 604
f 605 608 607 606
f 601 605 606 602
f 602 606 607 603
f 603 607 608 604
f 605 601 604 608
o Bahía_frente_removible
usemtl glass
v 810.000 40.000 17.000
v 970.000 40.000 17.000
v 970.000 43.000 17.000
v 810.000 43.000 17.000
v 810.000 40.000 297.000
v 970.000 40.000 297.000
v 970.000 43.000 297.000
v 810.000 43.000 297.000
f 609 610 611 612
f 613 616 615 614
f 609 613 614 610
f 610 614 615 611
f 611 615 616 612
f 613 609 612 616
o ESP32-S3_N16R8
usemtl electronics
v 835.000 195.000 55.000
v 895.000 195.000 55.000
v 895.000 230.000 55.000
v 835.000 230.000 55.000
v 835.000 195.000 140.000
v 895.000 195.000 140.000
v 895.000 230.000 140.000
v 835.000 230.000 140.000
f 617 618 619 620
f 621 624 623 622
f 617 621 622 618
f 618 622 623 619
f 619 623 624 620
f 621 617 620 624
o Relé_bomba
usemtl relay
v 910.000 195.000 55.000
v 950.000 195.000 55.000
v 950.000 230.000 55.000
v 910.000 230.000 55.000
v 910.000 195.000 100.000
v 950.000 195.000 100.000
v 950.000 230.000 100.000
v 910.000 230.000 100.000
f 625 626 627 628
f 629 632 631 630
f 625 629 630 626
f 626 630 631 627
f 627 631 632 628
f 629 625 628 632
o Relé_4_canales
usemtl relay
v 835.000 125.000 55.000
v 950.000 125.000 55.000
v 950.000 170.000 55.000
v 835.000 170.000 55.000
v 835.000 125.000 110.000
v 950.000 125.000 110.000
v 950.000 170.000 110.000
v 835.000 170.000 110.000
f 633 634 635 636
f 637 640 639 638
f 633 637 638 634
f 634 638 639 635
f 635 639 640 636
f 637 633 636 640
o Fusible_3A
usemtl red
v 835.000 82.000 55.000
v 880.000 82.000 55.000
v 880.000 107.000 55.000
v 835.000 107.000 55.000
v 835.000 82.000 80.000
v 880.000 82.000 80.000
v 880.000 107.000 80.000
v 835.000 107.000 80.000
f 641 642 643 644
f 645 648 647 646
f 641 645 646 642
f 642 646 647 643
f 643 647 648 644
f 645 641 644 648
o Barra_5V-GND
usemtl metal
v 895.000 82.000 55.000
v 950.000 82.000 55.000
v 950.000 107.000 55.000
v 895.000 107.000 55.000
v 895.000 82.000 80.000
v 950.000 82.000 80.000
v 950.000 107.000 80.000
v 895.000 107.000 80.000
f 649 650 651 652
f 653 656 655 654
f 649 653 654 650
f 650 654 655 651
f 651 655 656 652
f 653 649 652 656
o LCD1602_técnico
usemtl blue_light
v 835.000 38.000 190.000
v 945.000 38.000 190.000
v 945.000 44.000 190.000
v 835.000 44.000 190.000
v 835.000 38.000 230.000
v 945.000 38.000 230.000
v 945.000 44.000 230.000
v 835.000 44.000 230.000
f 657 658 659 660
f 661 664 663 662
f 657 661 662 658
f 658 662 663 659
f 659 663 664 660
f 661 657 660 664
o Interruptor_general
usemtl red
v 900.000 37.000 245.000
v 930.000 37.000 245.000
v 930.000 45.000 245.000
v 900.000 45.000 245.000
v 900.000 37.000 275.000
v 930.000 37.000 275.000
v 930.000 45.000 275.000
v 900.000 45.000 275.000
f 665 666 667 668
f 669 672 671 670
f 665 669 670 666
f 666 670 671 667
f 667 671 672 668
f 669 665 668 672
o DHT11_ventilado
usemtl white
v 620.000 655.000 145.000
v 645.000 655.000 145.000
v 645.000 670.000 145.000
v 620.000 670.000 145.000
v 620.000 655.000 180.000
v 645.000 655.000 180.000
v 645.000 670.000 180.000
v 620.000 670.000 180.000
f 673 674 675 676
f 677 680 679 678
f 673 677 678 674
f 674 678 679 675
f 675 679 680 676
f 677 673 676 680
o LDR_bajo_alero
usemtl green
v 940.000 282.000 185.000
v 958.000 282.000 185.000
v 958.000 294.000 185.000
v 940.000 294.000 185.000
v 940.000 282.000 203.000
v 958.000 282.000 203.000
v 958.000 294.000 203.000
v 940.000 294.000 203.000
f 681 682 683 684
f 685 688 687 686
f 681 685 686 682
f 682 686 687 683
f 683 687 688 684
f 685 681 684 688
o PIR_entrada
usemtl white
v 575.000 260.000 65.000
v 605.000 260.000 65.000
v 605.000 278.000 65.000
v 575.000 278.000 65.000
v 575.000 260.000 95.000
v 605.000 260.000 95.000
v 605.000 278.000 95.000
v 575.000 278.000 95.000
f 689 690 691 692
f 693 696 695 694
f 689 693 694 690
f 690 694 695 691
f 691 695 696 692
f 693 689 692 696
