mtllib project_domus.mtl
# PROJECT DOMUS one-storey cutaway offline model
o Base_negra_1000x650
usemtl base
v 0.000 0.000 0.000
v 1000.000 0.000 0.000
v 1000.000 650.000 0.000
v 0.000 650.000 0.000
v 0.000 0.000 12.000
v 1000.000 0.000 12.000
v 1000.000 650.000 12.000
v 0.000 650.000 12.000
f 1 2 3 4
f 5 8 7 6
f 1 5 6 2
f 2 6 7 3
f 3 7 8 4
f 5 1 4 8
o Frente_rotulado_PROJECT_DOMUS
usemtl roof
v 0.000 0.000 12.000
v 1000.000 0.000 12.000
v 1000.000 22.000 12.000
v 0.000 22.000 12.000
v 0.000 0.000 87.000
v 1000.000 0.000 87.000
v 1000.000 22.000 87.000
v 0.000 22.000 87.000
f 9 10 11 12
f 13 16 15 14
f 9 13 14 10
f 10 14 15 11
f 11 15 16 12
f 13 9 12 16
o Canal_técnico_oculto
usemtl blue
v 285.000 28.000 12.000
v 975.000 28.000 12.000
v 975.000 56.000 12.000
v 285.000 56.000 12.000
v 285.000 28.000 28.000
v 975.000 28.000 28.000
v 975.000 56.000 28.000
v 285.000 56.000 28.000
f 17 18 19 20
f 21 24 23 22
f 17 21 22 18
f 18 22 23 19
f 19 23 24 20
f 21 17 20 24
o Piso_vivienda
usemtl floor
v 300.000 300.000 12.000
v 730.000 300.000 12.000
v 730.000 625.000 12.000
v 300.000 625.000 12.000
v 300.000 300.000 19.000
v 730.000 300.000 19.000
v 730.000 625.000 19.000
v 300.000 625.000 19.000
f 25 26 27 28
f 29 32 31 30
f 25 29 30 26
f 26 30 31 27
f 27 31 32 28
f 29 25 28 32
o Muro_posterior_vivienda
usemtl wood_light
v 300.000 622.000 19.000
v 730.000 622.000 19.000
v 730.000 625.000 19.000
v 300.000 625.000 19.000
v 300.000 622.000 244.000
v 730.000 622.000 244.000
v 730.000 625.000 244.000
v 300.000 625.000 244.000
f 33 34 35 36
f 37 40 39 38
f 33 37 38 34
f 34 38 39 35
f 35 39 40 36
f 37 33 36 40
o Muro_lateral_izquierdo
usemtl wood_light
v 300.000 300.000 19.000
v 303.000 300.000 19.000
v 303.000 625.000 19.000
v 300.000 625.000 19.000
v 300.000 300.000 244.000
v 303.000 300.000 244.000
v 303.000 625.000 244.000
v 300.000 625.000 244.000
f 41 42 43 44
f 45 48 47 46
f 41 45 46 42
f 42 46 47 43
f 43 47 48 44
f 45 41 44 48
o Muro_lateral_derecho
usemtl wood_light
v 727.000 300.000 19.000
v 730.000 300.000 19.000
v 730.000 625.000 19.000
v 727.000 625.000 19.000
v 727.000 300.000 244.000
v 730.000 300.000 244.000
v 730.000 625.000 244.000
v 727.000 625.000 244.000
f 49 50 51 52
f 53 56 55 54
f 49 53 54 50
f 50 54 55 51
f 51 55 56 52
f 53 49 52 56
o Techo_plano_removible
usemtl roof
v 292.000 292.000 244.000
v 738.000 292.000 244.000
v 738.000 633.000 244.000
v 292.000 633.000 244.000
v 292.000 292.000 254.000
v 738.000 292.000 254.000
v 738.000 633.000 254.000
v 292.000 633.000 254.000
f 57 58 59 60
f 61 64 63 62
f 57 61 62 58
f 58 62 63 59
f 59 63 64 60
f 61 57 60 64
o Alero_frontal
usemtl wood
v 285.000 280.000 238.000
v 745.000 280.000 238.000
v 745.000 302.000 238.000
v 285.000 302.000 238.000
v 285.000 280.000 252.000
v 745.000 280.000 252.000
v 745.000 302.000 252.000
v 285.000 302.000 252.000
f 65 66 67 68
f 69 72 71 70
f 65 69 70 66
f 66 70 71 67
f 67 71 72 68
f 69 65 68 72
o Mueble_bajo_cocina
usemtl wood
v 325.000 572.000 19.000
v 503.000 572.000 19.000
v 503.000 614.000 19.000
v 325.000 614.000 19.000
v 325.000 572.000 87.000
v 503.000 572.000 87.000
v 503.000 614.000 87.000
v 325.000 614.000 87.000
f 73 74 75 76
f 77 80 79 78
f 73 77 78 74
f 74 78 79 75
f 75 79 80 76
f 77 73 76 80
o Encimera_cocina
usemtl wood_light
v 322.000 568.000 87.000
v 506.000 568.000 87.000
v 506.000 616.000 87.000
v 322.000 616.000 87.000
v 322.000 568.000 94.000
v 506.000 568.000 94.000
v 506.000 616.000 94.000
v 322.000 616.000 94.000
f 81 82 83 84
f 85 88 87 86
f 81 85 86 82
f 82 86 87 83
f 83 87 88 84
f 85 81 84 88
o Gabinete_alto_cocina
usemtl wood
v 325.000 594.000 130.000
v 455.000 594.000 130.000
v 455.000 618.000 130.000
v 325.000 618.000 130.000
v 325.000 594.000 202.000
v 455.000 594.000 202.000
v 455.000 618.000 202.000
v 325.000 618.000 202.000
f 89 90 91 92
f 93 96 95 94
f 89 93 94 90
f 90 94 95 91
f 91 95 96 92
f 93 89 92 96
o Refrigerador
usemtl metal
v 515.000 548.000 19.000
v 563.000 548.000 19.000
v 563.000 614.000 19.000
v 515.000 614.000 19.000
v 515.000 548.000 157.000
v 563.000 548.000 157.000
v 563.000 614.000 157.000
v 515.000 614.000 157.000
f 97 98 99 100
f 101 104 103 102
f 97 101 102 98
f 98 102 103 99
f 99 103 104 100
f 101 97 100 104
o Isla_cocina
usemtl wood
v 405.000 465.000 19.000
v 523.000 465.000 19.000
v 523.000 513.000 19.000
v 405.000 513.000 19.000
v 405.000 465.000 89.000
v 523.000 465.000 89.000
v 523.000 513.000 89.000
v 405.000 513.000 89.000
f 105 106 107 108
f 109 112 111 110
f 105 109 110 106
f 106 110 111 107
f 107 111 112 108
f 109 105 108 112
o Cubierta_isla
usemtl wood_light
v 400.000 460.000 89.000
v 528.000 460.000 89.000
v 528.000 518.000 89.000
v 400.000 518.000 89.000
v 400.000 460.000 95.000
v 528.000 460.000 95.000
v 528.000 518.000 95.000
v 400.000 518.000 95.000
f 113 114 115 116
f 117 120 119 118
f 113 117 118 114
f 114 118 119 115
f 115 119 120 116
f 117 113 116 120
o Sofá_sala
usemtl blue
v 330.000 350.000 19.000
v 452.000 350.000 19.000
v 452.000 405.000 19.000
v 330.000 405.000 19.000
v 330.000 350.000 71.000
v 452.000 350.000 71.000
v 452.000 405.000 71.000
v 330.000 405.000 71.000
f 121 122 123 124
f 125 128 127 126
f 121 125 126 122
f 122 126 127 123
f 123 127 128 124
f 125 121 124 128
o Mesa_sala
usemtl wood
v 462.000 370.000 19.000
v 532.000 370.000 19.000
v 532.000 418.000 19.000
v 462.000 418.000 19.000
v 462.000 370.000 50.000
v 532.000 370.000 50.000
v 532.000 418.000 50.000
v 462.000 418.000 50.000
f 129 130 131 132
f 133 136 135 134
f 129 133 134 130
f 130 134 135 131
f 131 135 136 132
f 133 129 132 136
o Cama_base
usemtl wood
v 545.000 405.000 19.000
v 663.000 405.000 19.000
v 663.000 583.000 19.000
v 545.000 583.000 19.000
v 545.000 405.000 56.000
v 663.000 405.000 56.000
v 663.000 583.000 56.000
v 545.000 583.000 56.000
f 137 138 139 140
f 141 144 143 142
f 137 141 142 138
f 138 142 143 139
f 139 143 144 140
f 141 137 140 144
o Colchón
usemtl white
v 550.000 410.000 56.000
v 658.000 410.000 56.000
v 658.000 578.000 56.000
v 550.000 578.000 56.000
v 550.000 410.000 80.000
v 658.000 410.000 80.000
v 658.000 578.000 80.000
v 550.000 578.000 80.000
f 145 146 147 148
f 149 152 151 150
f 145 149 150 146
f 146 150 151 147
f 147 151 152 148
f 149 145 148 152
o Cabecero
usemtl wood
v 542.000 567.000 19.000
v 666.000 567.000 19.000
v 666.000 577.000 19.000
v 542.000 577.000 19.000
v 542.000 567.000 105.000
v 666.000 567.000 105.000
v 666.000 577.000 105.000
v 542.000 577.000 105.000
f 153 154 155 156
f 157 160 159 158
f 153 157 158 154
f 154 158 159 155
f 155 159 160 156
f 157 153 156 160
o Mesa_de_noche
usemtl wood
v 675.000 520.000 19.000
v 713.000 520.000 19.000
v 713.000 558.000 19.000
v 675.000 558.000 19.000
v 675.000 520.000 61.000
v 713.000 520.000 61.000
v 713.000 558.000 61.000
v 675.000 558.000 61.000
f 161 162 163 164
f 165 168 167 166
f 161 165 166 162
f 162 166 167 163
f 163 167 168 164
f 165 161 164 168
o Mampara_baño
usemtl glass
v 680.000 305.000 19.000
v 683.000 305.000 19.000
v 683.000 595.000 19.000
v 680.000 595.000 19.000
v 680.000 305.000 209.000
v 683.000 305.000 209.000
v 683.000 595.000 209.000
v 680.000 595.000 209.000
f 169 170 171 172
f 173 176 175 174
f 169 173 174 170
f 170 174 175 171
f 171 175 176 172
f 173 169 172 176
o Ducha_piso
usemtl glass
v 688.000 500.000 19.000
v 722.000 500.000 19.000
v 722.000 594.000 19.000
v 688.000 594.000 19.000
v 688.000 500.000 27.000
v 722.000 500.000 27.000
v 722.000 594.000 27.000
v 688.000 594.000 27.000
f 177 178 179 180
f 181 184 183 182
f 177 181 182 178
f 178 182 183 179
f 179 183 184 180
f 181 177 180 184
o Lavamanos
usemtl white
v 689.000 430.000 19.000
v 721.000 430.000 19.000
v 721.000 478.000 19.000
v 689.000 478.000 19.000
v 689.000 430.000 81.000
v 721.000 430.000 81.000
v 721.000 478.000 81.000
v 689.000 478.000 81.000
f 185 186 187 188
f 189 192 191 190
f 185 189 190 186
f 186 190 191 187
f 187 191 192 188
f 189 185 188 192
o Inodoro
usemtl white
v 690.000 340.000 19.000
v 720.000 340.000 19.000
v 720.000 392.000 19.000
v 690.000 392.000 19.000
v 690.000 340.000 62.000
v 720.000 340.000 62.000
v 720.000 392.000 62.000
v 690.000 392.000 62.000
f 193 194 195 196
f 197 200 199 198
f 193 197 198 194
f 194 198 199 195
f 195 199 200 196
f 197 193 196 200
o Panel_solar_izquierdo
usemtl solar
v 355.000 380.000 255.000
v 500.000 380.000 255.000
v 500.000 485.000 255.000
v 355.000 485.000 255.000
v 355.000 380.000 262.000
v 500.000 380.000 262.000
v 500.000 485.000 262.000
v 355.000 485.000 262.000
f 201 202 203 204
f 205 208 207 206
f 201 205 206 202
f 202 206 207 203
f 203 207 208 204
f 205 201 204 208
o Panel_solar_derecho
usemtl solar
v 535.000 380.000 255.000
v 680.000 380.000 255.000
v 680.000 485.000 255.000
v 535.000 485.000 255.000
v 535.000 380.000 262.000
v 680.000 380.000 262.000
v 680.000 485.000 262.000
v 535.000 485.000 262.000
f 209 210 211 212
f 213 216 215 214
f 209 213 214 210
f 210 214 215 211
f 211 215 216 212
f 213 209 212 216
o Plataforma_porche
usemtl floor
v 340.000 72.000 12.000
v 590.000 72.000 12.000
v 590.000 267.000 12.000
v 340.000 267.000 12.000
v 340.000 72.000 20.000
v 590.000 72.000 20.000
v 590.000 267.000 20.000
v 340.000 267.000 20.000
f 217 218 219 220
f 221 224 223 222
f 217 221 222 218
f 218 222 223 219
f 219 223 224 220
f 221 217 220 224
o Cubierta_porche
usemtl roof
v 332.000 62.000 154.000
v 598.000 62.000 154.000
v 598.000 272.000 154.000
v 332.000 272.000 154.000
v 332.000 62.000 163.000
v 598.000 62.000 163.000
v 598.000 272.000 163.000
v 332.000 272.000 163.000
f 225 226 227 228
f 229 232 231 230
f 225 229 230 226
f 226 230 231 227
f 227 231 232 228
f 229 225 228 232
o Poste_porche_izquierdo
usemtl wood
v 345.000 75.000 20.000
v 353.000 75.000 20.000
v 353.000 83.000 20.000
v 345.000 83.000 20.000
v 345.000 75.000 154.000
v 353.000 75.000 154.000
v 353.000 83.000 154.000
v 345.000 83.000 154.000
f 233 234 235 236
f 237 240 239 238
f 233 237 238 234
f 234 238 239 235
f 235 239 240 236
f 237 233 236 240
o Poste_porche_derecho
usemtl wood
v 575.000 75.000 20.000
v 583.000 75.000 20.000
v 583.000 83.000 20.000
v 575.000 83.000 20.000
v 575.000 75.000 154.000
v 583.000 75.000 154.000
v 583.000 83.000 154.000
v 575.000 83.000 154.000
f 241 242 243 244
f 245 248 247 246
f 241 245 246 242
f 242 246 247 243
f 243 247 248 244
f 245 241 244 248
o Pasarela
usemtl wood_light
v 440.000 22.000 12.000
v 498.000 22.000 12.000
v 498.000 132.000 12.000
v 440.000 132.000 12.000
v 440.000 22.000 18.000
v 498.000 22.000 18.000
v 498.000 132.000 18.000
v 440.000 132.000 18.000
f 249 250 251 252
f 253 256 255 254
f 249 253 254 250
f 250 254 255 251
f 251 255 256 252
f 253 249 252 256
o Jardinera_izquierda
usemtl soil
v 360.000 92.000 20.000
v 398.000 92.000 20.000
v 398.000 227.000 20.000
v 360.000 227.000 20.000
v 360.000 92.000 46.000
v 398.000 92.000 46.000
v 398.000 227.000 46.000
v 360.000 227.000 46.000
f 257 258 259 260
f 261 264 263 262
f 257 261 262 258
f 258 262 263 259
f 259 263 264 260
f 261 257 260 264
o Jardinera_derecha
usemtl soil
v 530.000 92.000 20.000
v 568.000 92.000 20.000
v 568.000 227.000 20.000
v 530.000 227.000 20.000
v 530.000 92.000 46.000
v 568.000 92.000 46.000
v 568.000 227.000 46.000
v 530.000 227.000 46.000
f 265 266 267 268
f 269 272 271 270
f 265 269 270 266
f 266 270 271 267
f 267 271 272 268
f 269 265 268 272
o PIR_entrada
usemtl white
v 605.000 235.000 60.000
v 633.000 235.000 60.000
v 633.000 250.000 60.000
v 605.000 250.000 60.000
v 605.000 235.000 88.000
v 633.000 235.000 88.000
v 633.000 250.000 88.000
v 605.000 250.000 88.000
f 273 274 275 276
f 277 280 279 278
f 273 277 278 274
f 274 278 279 275
f 275 279 280 276
f 277 273 276 280
o Depósito_de_agua
usemtl water
v 25.000 65.000 12.000
v 117.000 65.000 12.000
v 117.000 157.000 12.000
v 25.000 157.000 12.000
v 25.000 65.000 112.000
v 117.000 65.000 112.000
v 117.000 157.000 112.000
v 25.000 157.000 112.000
f 281 282 283 284
f 285 288 287 286
f 281 285 286 282
f 282 286 287 283
f 283 287 288 284
f 285 281 284 288
o Mini_bomba_5V
usemtl blue
v 130.000 95.000 12.000
v 178.000 95.000 12.000
v 178.000 129.000 12.000
v 130.000 129.000 12.000
v 130.000 95.000 43.000
v 178.000 95.000 43.000
v 178.000 129.000 43.000
v 130.000 129.000 43.000
f 289 290 291 292
f 293 296 295 294
f 289 293 294 290
f 290 294 295 291
f 291 295 296 292
f 293 289 292 296
o Tubería_a_invernadero
usemtl blue_light
v 105.000 170.000 40.000
v 255.000 170.000 40.000
v 255.000 180.000 40.000
v 105.000 180.000 40.000
v 105.000 170.000 50.000
v 255.000 170.000 50.000
v 255.000 180.000 50.000
v 105.000 180.000 50.000
f 297 298 299 300
f 301 304 303 302
f 297 301 302 298
f 298 302 303 299
f 299 303 304 300
f 301 297 300 304
o Sensor_nivel_depósito
usemtl metal
v 68.000 80.000 50.000
v 75.000 80.000 50.000
v 75.000 87.000 50.000
v 68.000 87.000 50.000
v 68.000 80.000 124.000
v 75.000 80.000 124.000
v 75.000 87.000 124.000
v 68.000 87.000 124.000
f 305 306 307 308
f 309 312 311 310
f 305 309 310 306
f 306 310 311 307
f 307 311 312 308
f 309 305 308 312
o Base_invernadero
usemtl wood
v 25.000 230.000 12.000
v 275.000 230.000 12.000
v 275.000 580.000 12.000
v 25.000 580.000 12.000
v 25.000 230.000 19.000
v 275.000 230.000 19.000
v 275.000 580.000 19.000
v 25.000 580.000 19.000
f 313 314 315 316
f 317 320 319 318
f 313 317 318 314
f 314 318 319 315
f 315 319 320 316
f 317 313 316 320
o Bancal_izquierdo
usemtl soil
v 48.000 265.000 19.000
v 124.000 265.000 19.000
v 124.000 545.000 19.000
v 48.000 545.000 19.000
v 48.000 265.000 61.000
v 124.000 265.000 61.000
v 124.000 545.000 61.000
v 48.000 545.000 61.000
f 321 322 323 324
f 325 328 327 326
f 321 325 326 322
f 322 326 327 323
f 323 327 328 324
f 325 321 324 328
o Bancal_derecho
usemtl soil
v 155.000 265.000 19.000
v 231.000 265.000 19.000
v 231.000 545.000 19.000
v 155.000 545.000 19.000
v 155.000 265.000 61.000
v 231.000 265.000 61.000
v 231.000 545.000 61.000
v 155.000 545.000 61.000
f 329 330 331 332
f 333 336 335 334
f 329 333 334 330
f 330 334 335 331
f 331 335 336 332
f 333 329 332 336
o Panel_transparente_izquierdo
usemtl glass
v 25.000 230.000 19.000
v 28.000 230.000 19.000
v 28.000 580.000 19.000
v 25.000 580.000 19.000
v 25.000 230.000 184.000
v 28.000 230.000 184.000
v 28.000 580.000 184.000
v 25.000 580.000 184.000
f 337 338 339 340
f 341 344 343 342
f 337 341 342 338
f 338 342 343 339
f 339 343 344 340
f 341 337 340 344
o Panel_transparente_derecho
usemtl glass
v 272.000 230.000 19.000
v 275.000 230.000 19.000
v 275.000 580.000 19.000
v 272.000 580.000 19.000
v 272.000 230.000 184.000
v 275.000 230.000 184.000
v 275.000 580.000 184.000
v 272.000 580.000 184.000
f 345 346 347 348
f 349 352 351 350
f 345 349 350 346
f 346 350 351 347
f 347 351 352 348
f 349 345 348 352
o Panel_transparente_posterior
usemtl glass
v 25.000 577.000 19.000
v 275.000 577.000 19.000
v 275.000 580.000 19.000
v 25.000 580.000 19.000
v 25.000 577.000 184.000
v 275.000 577.000 184.000
v 275.000 580.000 184.000
v 25.000 580.000 184.000
f 353 354 355 356
f 357 360 359 358
f 353 357 358 354
f 354 358 359 355
f 355 359 360 356
f 357 353 356 360
o Cubierta_inclinada_izquierda
usemtl glass
v 31.441 230.000 151.011
v 155.683 230.000 201.208
v 155.683 580.000 201.208
v 31.441 580.000 151.011
v 30.317 230.000 153.792
v 154.559 230.000 203.989
v 154.559 580.000 203.989
v 30.317 580.000 153.792
f 361 362 363 364
f 365 368 367 366
f 361 365 366 362
f 362 366 367 363
f 363 367 368 364
f 365 361 364 368
o Cubierta_inclinada_derecha
usemtl glass
v 144.317 230.000 201.208
v 268.559 230.000 151.011
v 268.559 580.000 151.011
v 144.317 580.000 201.208
v 145.441 230.000 203.989
v 269.683 230.000 153.792
v 269.683 580.000 153.792
v 145.441 580.000 203.989
f 369 370 371 372
f 373 376 375 374
f 369 373 374 370
f 370 374 375 371
f 371 375 376 372
f 373 369 372 376
o Viga_cumbrera
usemtl metal
v 146.000 230.000 225.000
v 154.000 230.000 225.000
v 154.000 580.000 225.000
v 146.000 580.000 225.000
v 146.000 230.000 233.000
v 154.000 230.000 233.000
v 154.000 580.000 233.000
v 146.000 580.000 233.000
f 377 378 379 380
f 381 384 383 382
f 377 381 382 378
f 378 382 383 379
f 379 383 384 380
f 381 377 380 384
o Poste_invernadero_25-230
usemtl metal
v 25.000 230.000 19.000
v 32.000 230.000 19.000
v 32.000 237.000 19.000
v 25.000 237.000 19.000
v 25.000 230.000 189.000
v 32.000 230.000 189.000
v 32.000 237.000 189.000
v 25.000 237.000 189.000
f 385 386 387 388
f 389 392 391 390
f 385 389 390 386
f 386 390 391 387
f 387 391 392 388
f 389 385 388 392
o Poste_invernadero_25-577
usemtl metal
v 25.000 577.000 19.000
v 32.000 577.000 19.000
v 32.000 584.000 19.000
v 25.000 584.000 19.000
v 25.000 577.000 189.000
v 32.000 577.000 189.000
v 32.000 584.000 189.000
v 25.000 584.000 189.000
f 393 394 395 396
f 397 400 399 398
f 393 397 398 394
f 394 398 399 395
f 395 399 400 396
f 397 393 396 400
o Poste_invernadero_150-230
usemtl metal
v 150.000 230.000 19.000
v 157.000 230.000 19.000
v 157.000 237.000 19.000
v 150.000 237.000 19.000
v 150.000 230.000 189.000
v 157.000 230.000 189.000
v 157.000 237.000 189.000
v 150.000 237.000 189.000
f 401 402 403 404
f 405 408 407 406
f 401 405 406 402
f 402 406 407 403
f 403 407 408 404
f 405 401 404 408
o Poste_invernadero_150-577
usemtl metal
v 150.000 577.000 19.000
v 157.000 577.000 19.000
v 157.000 584.000 19.000
v 150.000 584.000 19.000
v 150.000 577.000 189.000
v 157.000 577.000 189.000
v 157.000 584.000 189.000
v 150.000 584.000 189.000
f 409 410 411 412
f 413 416 415 414
f 409 413 414 410
f 410 414 415 411
f 411 415 416 412
f 413 409 412 416
o Poste_invernadero_272-230
usemtl metal
v 272.000 230.000 19.000
v 279.000 230.000 19.000
v 279.000 237.000 19.000
v 272.000 237.000 19.000
v 272.000 230.000 189.000
v 279.000 230.000 189.000
v 279.000 237.000 189.000
v 272.000 237.000 189.000
f 417 418 419 420
f 421 424 423 422
f 417 421 422 418
f 418 422 423 419
f 419 423 424 420
f 421 417 420 424
o Poste_invernadero_272-577
usemtl metal
v 272.000 577.000 19.000
v 279.000 577.000 19.000
v 279.000 584.000 19.000
v 272.000 584.000 19.000
v 272.000 577.000 189.000
v 279.000 577.000 189.000
v 279.000 584.000 189.000
v 272.000 584.000 189.000
f 425 426 427 428
f 429 432 431 430
f 425 429 430 426
f 426 430 431 427
f 427 431 432 428
f 429 425 428 432
o Planta_48
usemtl green
v 48.000 330.000 61.000
v 58.000 330.000 61.000
v 58.000 340.000 61.000
v 48.000 340.000 61.000
v 48.000 330.000 119.000
v 58.000 330.000 119.000
v 58.000 340.000 119.000
v 48.000 340.000 119.000
f 433 434 435 436
f 437 440 439 438
f 433 437 438 434
f 434 438 439 435
f 435 439 440 436
f 437 433 436 440
o Planta_88
usemtl green
v 88.000 330.000 61.000
v 98.000 330.000 61.000
v 98.000 340.000 61.000
v 88.000 340.000 61.000
v 88.000 330.000 119.000
v 98.000 330.000 119.000
v 98.000 340.000 119.000
v 88.000 340.000 119.000
f 441 442 443 444
f 445 448 447 446
f 441 445 446 442
f 442 446 447 443
f 443 447 448 444
f 445 441 444 448
o Planta_172
usemtl green
v 172.000 330.000 61.000
v 182.000 330.000 61.000
v 182.000 340.000 61.000
v 172.000 340.000 61.000
v 172.000 330.000 119.000
v 182.000 330.000 119.000
v 182.000 340.000 119.000
v 172.000 340.000 119.000
f 449 450 451 452
f 453 456 455 454
f 449 453 454 450
f 450 454 455 451
f 451 455 456 452
f 453 449 452 456
o Planta_212
usemtl green
v 212.000 330.000 61.000
v 222.000 330.000 61.000
v 222.000 340.000 61.000
v 212.000 340.000 61.000
v 212.000 330.000 119.000
v 222.000 330.000 119.000
v 222.000 340.000 119.000
v 212.000 340.000 119.000
f 457 458 459 460
f 461 464 463 462
f 457 461 462 458
f 458 462 463 459
f 459 463 464 460
f 461 457 460 464
o Sensor_humedad_suelo
usemtl metal
v 105.000 410.000 56.000
v 113.000 410.000 56.000
v 113.000 418.000 56.000
v 105.000 418.000 56.000
v 105.000 410.000 126.000
v 113.000 410.000 126.000
v 113.000 418.000 126.000
v 105.000 418.000 126.000
f 465 466 467 468
f 469 472 471 470
f 465 469 470 466
f 466 470 471 467
f 467 471 472 468
f 469 465 468 472
o Línea_de_riego_izquierda
usemtl blue_light
v 84.000 270.000 70.000
v 91.000 270.000 70.000
v 91.000 540.000 70.000
v 84.000 540.000 70.000
v 84.000 270.000 77.000
v 91.000 270.000 77.000
v 91.000 540.000 77.000
v 84.000 540.000 77.000
f 473 474 475 476
f 477 480 479 478
f 473 477 478 474
f 474 478 479 475
f 475 479 480 476
f 477 473 476 480
o Línea_de_riego_derecha
usemtl blue_light
v 190.000 270.000 70.000
v 197.000 270.000 70.000
v 197.000 540.000 70.000
v 190.000 540.000 70.000
v 190.000 270.000 77.000
v 197.000 270.000 77.000
v 197.000 540.000 77.000
v 190.000 540.000 77.000
f 481 482 483 484
f 485 488 487 486
f 481 485 486 482
f 482 486 487 483
f 483 487 488 484
f 485 481 484 488
o Torre_Jarvis_cuerpo
usemtl roof
v 750.000 245.000 12.000
v 855.000 245.000 12.000
v 855.000 363.000 12.000
v 750.000 363.000 12.000
v 750.000 245.000 302.000
v 855.000 245.000 302.000
v 855.000 363.000 302.000
v 750.000 363.000 302.000
f 489 490 491 492
f 493 496 495 494
f 489 493 494 490
f 490 494 495 491
f 491 495 496 492
f 493 489 492 496
o Panel_azul_central
usemtl blue
v 766.000 239.000 55.000
v 839.000 239.000 55.000
v 839.000 246.000 55.000
v 766.000 246.000 55.000
v 766.000 239.000 275.000
v 839.000 239.000 275.000
v 839.000 246.000 275.000
v 766.000 246.000 275.000
f 497 498 499 500
f 501 504 503 502
f 497 501 502 498
f 498 502 503 499
f 499 503 504 500
f 501 497 500 504
o Pantalla_de_estado
usemtl blue_light
v 773.000 236.000 82.000
v 833.000 236.000 82.000
v 833.000 243.000 82.000
v 773.000 243.000 82.000
v 773.000 236.000 114.000
v 833.000 236.000 114.000
v 833.000 243.000 114.000
v 773.000 243.000 114.000
f 505 506 507 508
f 509 512 511 510
f 505 509 510 506
f 506 510 511 507
f 507 511 512 508
f 509 505 508 512
o Botón_físico_MIC_OFF
usemtl red
v 790.000 233.000 38.000
v 815.000 233.000 38.000
v 815.000 245.000 38.000
v 790.000 245.000 38.000
v 790.000 233.000 63.000
v 815.000 233.000 63.000
v 815.000 245.000 63.000
v 790.000 245.000 63.000
f 513 514 515 516
f 517 520 519 518
f 513 517 518 514
f 514 518 519 515
f 515 519 520 516
f 517 513 516 520
o Micrófono_INMP441
usemtl electronics
v 799.000 235.000 222.000
v 808.000 235.000 222.000
v 808.000 241.000 222.000
v 799.000 241.000 222.000
v 799.000 235.000 231.000
v 808.000 235.000 231.000
v 808.000 241.000 231.000
v 799.000 241.000 231.000
f 521 522 523 524
f 525 528 527 526
f 521 525 526 522
f 522 526 527 523
f 523 527 528 524
f 525 521 524 528
o Altavoz_local
usemtl metal
v 784.000 235.000 160.000
v 821.000 235.000 160.000
v 821.000 242.000 160.000
v 784.000 242.000 160.000
v 784.000 235.000 197.000
v 821.000 235.000 197.000
v 821.000 242.000 197.000
v 784.000 242.000 197.000
f 529 530 531 532
f 533 536 535 534
f 529 533 534 530
f 530 534 535 531
f 531 535 536 532
f 533 529 532 536
o LED_aro_1
usemtl blue_light
v 835.000 232.000 222.000
v 842.000 232.000 222.000
v 842.000 239.000 222.000
v 835.000 239.000 222.000
v 835.000 232.000 229.000
v 842.000 232.000 229.000
v 842.000 239.000 229.000
v 835.000 239.000 229.000
f 537 538 539 540
f 541 544 543 542
f 537 541 542 538
f 538 542 543 539
f 539 543 544 540
f 541 537 540 544
o LED_aro_2
usemtl blue_light
v 832.260 232.000 235.777
v 839.260 232.000 235.777
v 839.260 239.000 235.777
v 832.260 239.000 235.777
v 832.260 232.000 242.777
v 839.260 232.000 242.777
v 839.260 239.000 242.777
v 832.260 239.000 242.777
f 545 546 547 548
f 549 552 551 550
f 545 549 550 546
f 546 550 551 547
f 547 551 552 548
f 549 545 548 552
o LED_aro_3
usemtl blue_light
v 824.456 232.000 247.456
v 831.456 232.000 247.456
v 831.456 239.000 247.456
v 824.456 239.000 247.456
v 824.456 232.000 254.456
v 831.456 232.000 254.456
v 831.456 239.000 254.456
v 824.456 239.000 254.456
f 553 554 555 556
f 557 560 559 558
f 553 557 558 554
f 554 558 559 555
f 555 559 560 556
f 557 553 556 560
o LED_aro_4
usemtl blue_light
v 812.777 232.000 255.260
v 819.777 232.000 255.260
v 819.777 239.000 255.260
v 812.777 239.000 255.260
v 812.777 232.000 262.260
v 819.777 232.000 262.260
v 819.777 239.000 262.260
v 812.777 239.000 262.260
f 561 562 563 564
f 565 568 567 566
f 561 565 566 562
f 562 566 567 563
f 563 567 568 564
f 565 561 564 568
o LED_aro_5
usemtl blue_light
v 799.000 232.000 258.000
v 806.000 232.000 258.000
v 806.000 239.000 258.000
v 799.000 239.000 258.000
v 799.000 232.000 265.000
v 806.000 232.000 265.000
v 806.000 239.000 265.000
v 799.000 239.000 265.000
f 569 570 571 572
f 573 576 575 574
f 569 573 574 570
f 570 574 575 571
f 571 575 576 572
f 573 569 572 576
o LED_aro_6
usemtl blue_light
v 785.223 232.000 255.260
v 792.223 232.000 255.260
v 792.223 239.000 255.260
v 785.223 239.000 255.260
v 785.223 232.000 262.260
v 792.223 232.000 262.260
v 792.223 239.000 262.260
v 785.223 239.000 262.260
f 577 578 579 580
f 581 584 583 582
f 577 581 582 578
f 578 582 583 579
f 579 583 584 580
f 581 577 580 584
o LED_aro_7
usemtl blue_light
v 773.544 232.000 247.456
v 780.544 232.000 247.456
v 780.544 239.000 247.456
v 773.544 239.000 247.456
v 773.544 232.000 254.456
v 780.544 232.000 254.456
v 780.544 239.000 254.456
v 773.544 239.000 254.456
f 585 586 587 588
f 589 592 591 590
f 585 589 590 586
f 586 590 591 587
f 587 591 592 588
f 589 585 588 592
o LED_aro_8
usemtl blue_light
v 765.740 232.000 235.777
v 772.740 232.000 235.777
v 772.740 239.000 235.777
v 765.740 239.000 235.777
v 765.740 232.000 242.777
v 772.740 232.000 242.777
v 772.740 239.000 242.777
v 765.740 239.000 242.777
f 593 594 595 596
f 597 600 599 598
f 593 597 598 594
f 594 598 599 595
f 595 599 600 596
f 597 593 596 600
o LED_aro_9
usemtl blue_light
v 763.000 232.000 222.000
v 770.000 232.000 222.000
v 770.000 239.000 222.000
v 763.000 239.000 222.000
v 763.000 232.000 229.000
v 770.000 232.000 229.000
v 770.000 239.000 229.000
v 763.000 239.000 229.000
f 601 602 603 604
f 605 608 607 606
f 601 605 606 602
f 602 606 607 603
f 603 607 608 604
f 605 601 604 608
o LED_aro_10
usemtl blue_light
v 765.740 232.000 208.223
v 772.740 232.000 208.223
v 772.740 239.000 208.223
v 765.740 239.000 208.223
v 765.740 232.000 215.223
v 772.740 232.000 215.223
v 772.740 239.000 215.223
v 765.740 239.000 215.223
f 609 610 611 612
f 613 616 615 614
f 609 613 614 610
f 610 614 615 611
f 611 615 616 612
f 613 609 612 616
o LED_aro_11
usemtl blue_light
v 773.544 232.000 196.544
v 780.544 232.000 196.544
v 780.544 239.000 196.544
v 773.544 239.000 196.544
v 773.544 232.000 203.544
v 780.544 232.000 203.544
v 780.544 239.000 203.544
v 773.544 239.000 203.544
f 617 618 619 620
f 621 624 623 622
f 617 621 622 618
f 618 622 623 619
f 619 623 624 620
f 621 617 620 624
o LED_aro_12
usemtl blue_light
v 785.223 232.000 188.740
v 792.223 232.000 188.740
v 792.223 239.000 188.740
v 785.223 239.000 188.740
v 785.223 232.000 195.740
v 792.223 232.000 195.740
v 792.223 239.000 195.740
v 785.223 239.000 195.740
f 625 626 627 628
f 629 632 631 630
f 625 629 630 626
f 626 630 631 627
f 627 631 632 628
f 629 625 628 632
o LED_aro_13
usemtl blue_light
v 799.000 232.000 186.000
v 806.000 232.000 186.000
v 806.000 239.000 186.000
v 799.000 239.000 186.000
v 799.000 232.000 193.000
v 806.000 232.000 193.000
v 806.000 239.000 193.000
v 799.000 239.000 193.000
f 633 634 635 636
f 637 640 639 638
f 633 637 638 634
f 634 638 639 635
f 635 639 640 636
f 637 633 636 640
o LED_aro_14
usemtl blue_light
v 812.777 232.000 188.740
v 819.777 232.000 188.740
v 819.777 239.000 188.740
v 812.777 239.000 188.740
v 812.777 232.000 195.740
v 819.777 232.000 195.740
v 819.777 239.000 195.740
v 812.777 239.000 195.740
f 641 642 643 644
f 645 648 647 646
f 641 645 646 642
f 642 646 647 643
f 643 647 648 644
f 645 641 644 648
o LED_aro_15
usemtl blue_light
v 824.456 232.000 196.544
v 831.456 232.000 196.544
v 831.456 239.000 196.544
v 824.456 239.000 196.544
v 824.456 232.000 203.544
v 831.456 232.000 203.544
v 831.456 239.000 203.544
v 824.456 239.000 203.544
f 649 650 651 652
f 653 656 655 654
f 649 653 654 650
f 650 654 655 651
f 651 655 656 652
f 653 649 652 656
o LED_aro_16
usemtl blue_light
v 832.260 232.000 208.223
v 839.260 232.000 208.223
v 839.260 239.000 208.223
v 832.260 239.000 208.223
v 832.260 232.000 215.223
v 839.260 232.000 215.223
v 839.260 239.000 215.223
v 832.260 239.000 215.223
f 657 658 659 660
f 661 664 663 662
f 657 661 662 658
f 658 662 663 659
f 659 663 664 660
f 661 657 660 664
o Gabinete_técnico_base
usemtl metal
v 870.000 235.000 12.000
v 980.000 235.000 12.000
v 980.000 385.000 12.000
v 870.000 385.000 12.000
v 870.000 235.000 19.000
v 980.000 235.000 19.000
v 980.000 385.000 19.000
v 870.000 385.000 19.000
f 665 666 667 668
f 669 672 671 670
f 665 669 670 666
f 666 670 671 667
f 667 671 672 668
f 669 665 668 672
o Gabinete_fondo
usemtl wood
v 870.000 382.000 19.000
v 980.000 382.000 19.000
v 980.000 385.000 19.000
v 870.000 385.000 19.000
v 870.000 382.000 269.000
v 980.000 382.000 269.000
v 980.000 385.000 269.000
v 870.000 385.000 269.000
f 673 674 675 676
f 677 680 679 678
f 673 677 678 674
f 674 678 679 675
f 675 679 680 676
f 677 673 676 680
o Gabinete_lateral_izquierdo
usemtl glass
v 870.000 235.000 19.000
v 873.000 235.000 19.000
v 873.000 385.000 19.000
v 870.000 385.000 19.000
v 870.000 235.000 269.000
v 873.000 235.000 269.000
v 873.000 385.000 269.000
v 870.000 385.000 269.000
f 681 682 683 684
f 685 688 687 686
f 681 685 686 682
f 682 686 687 683
f 683 687 688 684
f 685 681 684 688
o Gabinete_lateral_derecho
usemtl glass
v 977.000 235.000 19.000
v 980.000 235.000 19.000
v 980.000 385.000 19.000
v 977.000 385.000 19.000
v 977.000 235.000 269.000
v 980.000 235.000 269.000
v 980.000 385.000 269.000
v 977.000 385.000 269.000
f 689 690 691 692
f 693 696 695 694
f 689 693 694 690
f 690 694 695 691
f 691 695 696 692
f 693 689 692 696
o Gabinete_frontal_removible
usemtl glass
v 870.000 235.000 19.000
v 980.000 235.000 19.000
v 980.000 238.000 19.000
v 870.000 238.000 19.000
v 870.000 235.000 269.000
v 980.000 235.000 269.000
v 980.000 238.000 269.000
v 870.000 238.000 269.000
f 697 698 699 700
f 701 704 703 702
f 697 701 702 698
f 698 702 703 699
f 699 703 704 700
f 701 697 700 704
o ESP32-S3_N16R8
usemtl electronics
v 887.000 335.000 55.000
v 930.000 335.000 55.000
v 930.000 358.000 55.000
v 887.000 358.000 55.000
v 887.000 335.000 127.000
v 930.000 335.000 127.000
v 930.000 358.000 127.000
v 887.000 358.000 127.000
f 705 706 707 708
f 709 712 711 710
f 705 709 710 706
f 706 710 711 707
f 707 711 712 708
f 709 705 708 712
o Módulo_relés_4_canales
usemtl relay
v 937.000 330.000 55.000
v 967.000 330.000 55.000
v 967.000 360.000 55.000
v 937.000 360.000 55.000
v 937.000 330.000 160.000
v 967.000 330.000 160.000
v 967.000 360.000 160.000
v 937.000 360.000 160.000
f 713 714 715 716
f 717 720 719 718
f 713 717 718 714
f 714 718 719 715
f 715 719 720 716
f 717 713 716 720
o Fusible_3A
usemtl red
v 887.000 292.000 55.000
v 917.000 292.000 55.000
v 917.000 310.000 55.000
v 887.000 310.000 55.000
v 887.000 292.000 77.000
v 917.000 292.000 77.000
v 917.000 310.000 77.000
v 887.000 310.000 77.000
f 721 722 723 724
f 725 728 727 726
f 721 725 726 722
f 722 726 727 723
f 723 727 728 724
f 725 721 724 728
o Distribuidor_5V-GND
usemtl metal
v 927.000 292.000 55.000
v 967.000 292.000 55.000
v 967.000 310.000 55.000
v 927.000 310.000 55.000
v 927.000 292.000 77.000
v 967.000 292.000 77.000
v 967.000 310.000 77.000
v 927.000 310.000 77.000
f 729 730 731 732
f 733 736 735 734
f 729 733 734 730
f 730 734 735 731
f 731 735 736 732
f 733 729 732 736
o Regleta_de_terminales
usemtl blue
v 887.000 252.000 55.000
v 967.000 252.000 55.000
v 967.000 270.000 55.000
v 887.000 270.000 55.000
v 887.000 252.000 75.000
v 967.000 252.000 75.000
v 967.000 270.000 75.000
v 887.000 270.000 75.000
f 737 738 739 740
f 741 744 743 742
f 737 741 742 738
f 738 742 743 739
f 739 743 744 740
f 741 737 740 744
o Interruptor_general
usemtl red
v 944.000 229.000 222.000
v 966.000 229.000 222.000
v 966.000 241.000 222.000
v 944.000 241.000 222.000
v 944.000 229.000 248.000
v 966.000 229.000 248.000
v 966.000 241.000 248.000
v 944.000 241.000 248.000
f 745 746 747 748
f 749 752 751 750
f 745 749 750 746
f 746 750 751 747
f 747 751 752 748
f 749 745 748 752
o DHT11_interior
usemtl white
v 570.000 610.000 145.000
v 590.000 610.000 145.000
v 590.000 622.000 145.000
v 570.000 622.000 145.000
v 570.000 610.000 173.000
v 590.000 610.000 173.000
v 590.000 622.000 173.000
v 570.000 622.000 173.000
f 753 754 755 756
f 757 760 759 758
f 753 757 758 754
f 754 758 759 755
f 755 759 760 756
f 757 753 756 760
o LDR_bajo_alero
usemtl green
v 704.000 286.000 208.000
v 720.000 286.000 208.000
v 720.000 296.000 208.000
v 704.000 296.000 208.000
v 704.000 286.000 224.000
v 720.000 286.000 224.000
v 720.000 296.000 224.000
v 704.000 296.000 224.000
f 761 762 763 764
f 765 768 767 766
f 761 765 766 762
f 762 766 767 763
f 763 767 768 764
f 765 761 764 768
o LED_sala
usemtl blue_light
v 425.000 520.000 220.000
v 443.000 520.000 220.000
v 443.000 538.000 220.000
v 425.000 538.000 220.000
v 425.000 520.000 226.000
v 443.000 520.000 226.000
v 443.000 538.000 226.000
v 425.000 538.000 226.000
f 769 770 771 772
f 773 776 775 774
f 769 773 774 770
f 770 774 775 771
f 771 775 776 772
f 773 769 772 776
o LED_dormitorio
usemtl blue_light
v 615.000 520.000 220.000
v 633.000 520.000 220.000
v 633.000 538.000 220.000
v 615.000 538.000 220.000
v 615.000 520.000 226.000
v 633.000 520.000 226.000
v 633.000 538.000 226.000
v 615.000 538.000 226.000
f 777 778 779 780
f 781 784 783 782
f 777 781 782 778
f 778 782 783 779
f 779 783 784 780
f 781 777 780 784
o LED_invernadero
usemtl blue_light
v 142.000 420.000 218.000
v 160.000 420.000 218.000
v 160.000 438.000 218.000
v 142.000 438.000 218.000
v 142.000 420.000 224.000
v 160.000 420.000 224.000
v 160.000 438.000 224.000
v 142.000 438.000 224.000
f 785 786 787 788
f 789 792 791 790
f 785 789 790 786
f 786 790 791 787
f 787 791 792 788
f 789 785 788 792
o Junta_de_tablón_310
usemtl wood
v 310.000 621.000 20.000
v 311.400 621.000 20.000
v 311.400 625.000 20.000
v 310.000 625.000 20.000
v 310.000 621.000 242.000
v 311.400 621.000 242.000
v 311.400 625.000 242.000
v 310.000 625.000 242.000
f 793 794 795 796
f 797 800 799 798
f 793 797 798 794
f 794 798 799 795
f 795 799 800 796
f 797 793 796 800
o Junta_de_tablón_352
usemtl wood
v 352.000 621.000 20.000
v 353.400 621.000 20.000
v 353.400 625.000 20.000
v 352.000 625.000 20.000
v 352.000 621.000 242.000
v 353.400 621.000 242.000
v 353.400 625.000 242.000
v 352.000 625.000 242.000
f 801 802 803 804
f 805 808 807 806
f 801 805 806 802
f 802 806 807 803
f 803 807 808 804
f 805 801 804 808
o Junta_de_tablón_394
usemtl wood
v 394.000 621.000 20.000
v 395.400 621.000 20.000
v 395.400 625.000 20.000
v 394.000 625.000 20.000
v 394.000 621.000 242.000
v 395.400 621.000 242.000
v 395.400 625.000 242.000
v 394.000 625.000 242.000
f 809 810 811 812
f 813 816 815 814
f 809 813 814 810
f 810 814 815 811
f 811 815 816 812
f 813 809 812 816
o Junta_de_tablón_436
usemtl wood
v 436.000 621.000 20.000
v 437.400 621.000 20.000
v 437.400 625.000 20.000
v 436.000 625.000 20.000
v 436.000 621.000 242.000
v 437.400 621.000 242.000
v 437.400 625.000 242.000
v 436.000 625.000 242.000
f 817 818 819 820
f 821 824 823 822
f 817 821 822 818
f 818 822 823 819
f 819 823 824 820
f 821 817 820 824
o Junta_de_tablón_478
usemtl wood
v 478.000 621.000 20.000
v 479.400 621.000 20.000
v 479.400 625.000 20.000
v 478.000 625.000 20.000
v 478.000 621.000 242.000
v 479.400 621.000 242.000
v 479.400 625.000 242.000
v 478.000 625.000 242.000
f 825 826 827 828
f 829 832 831 830
f 825 829 830 826
f 826 830 831 827
f 827 831 832 828
f 829 825 828 832
o Junta_de_tablón_520
usemtl wood
v 520.000 621.000 20.000
v 521.400 621.000 20.000
v 521.400 625.000 20.000
v 520.000 625.000 20.000
v 520.000 621.000 242.000
v 521.400 621.000 242.000
v 521.400 625.000 242.000
v 520.000 625.000 242.000
f 833 834 835 836
f 837 840 839 838
f 833 837 838 834
f 834 838 839 835
f 835 839 840 836
f 837 833 836 840
o Junta_de_tablón_562
usemtl wood
v 562.000 621.000 20.000
v 563.400 621.000 20.000
v 563.400 625.000 20.000
v 562.000 625.000 20.000
v 562.000 621.000 242.000
v 563.400 621.000 242.000
v 563.400 625.000 242.000
v 562.000 625.000 242.000
f 841 842 843 844
f 845 848 847 846
f 841 845 846 842
f 842 846 847 843
f 843 847 848 844
f 845 841 844 848
o Junta_de_tablón_604
usemtl wood
v 604.000 621.000 20.000
v 605.400 621.000 20.000
v 605.400 625.000 20.000
v 604.000 625.000 20.000
v 604.000 621.000 242.000
v 605.400 621.000 242.000
v 605.400 625.000 242.000
v 604.000 625.000 242.000
f 849 850 851 852
f 853 856 855 854
f 849 853 854 850
f 850 854 855 851
f 851 855 856 852
f 853 849 852 856
o Junta_de_tablón_646
usemtl wood
v 646.000 621.000 20.000
v 647.400 621.000 20.000
v 647.400 625.000 20.000
v 646.000 625.000 20.000
v 646.000 621.000 242.000
v 647.400 621.000 242.000
v 647.400 625.000 242.000
v 646.000 625.000 242.000
f 857 858 859 860
f 861 864 863 862
f 857 861 862 858
f 858 862 863 859
f 859 863 864 860
f 861 857 860 864
o Junta_de_tablón_688
usemtl wood
v 688.000 621.000 20.000
v 689.400 621.000 20.000
v 689.400 625.000 20.000
v 688.000 625.000 20.000
v 688.000 621.000 242.000
v 689.400 621.000 242.000
v 689.400 625.000 242.000
v 688.000 625.000 242.000
f 865 866 867 868
f 869 872 871 870
f 865 869 870 866
f 866 870 871 867
f 867 871 872 868
f 869 865 868 872
o Junta_de_tablón_730
usemtl wood
v 730.000 621.000 20.000
v 731.400 621.000 20.000
v 731.400 625.000 20.000
v 730.000 625.000 20.000
v 730.000 621.000 242.000
v 731.400 621.000 242.000
v 731.400 625.000 242.000
v 730.000 625.000 242.000
f 873 874 875 876
f 877 880 879 878
f 873 877 878 874
f 874 878 879 875
f 875 879 880 876
f 877 873 876 880
o Tabique_dormitorio
usemtl wood_light
v 532.000 392.000 19.000
v 535.000 392.000 19.000
v 535.000 620.000 19.000
v 532.000 620.000 19.000
v 532.000 392.000 207.000
v 535.000 392.000 207.000
v 535.000 620.000 207.000
v 532.000 620.000 207.000
f 881 882 883 884
f 885 888 887 886
f 881 885 886 882
f 882 886 887 883
f 883 887 888 884
f 885 881 884 888
o Puerta_interior
usemtl wood
v 529.000 315.000 19.000
v 536.000 315.000 19.000
v 536.000 387.000 19.000
v 529.000 387.000 19.000
v 529.000 315.000 193.000
v 536.000 315.000 193.000
v 536.000 387.000 193.000
v 529.000 387.000 193.000
f 889 890 891 892
f 893 896 895 894
f 889 893 894 890
f 890 894 895 891
f 891 895 896 892
f 893 889 892 896
o Frente_cajón_cocina_1
usemtl wood_light
v 340.000 567.000 36.000
v 406.000 567.000 36.000
v 406.000 571.000 36.000
v 340.000 571.000 36.000
v 340.000 567.000 56.000
v 406.000 567.000 56.000
v 406.000 571.000 56.000
v 340.000 571.000 56.000
f 897 898 899 900
f 901 904 903 902
f 897 901 902 898
f 898 902 903 899
f 899 903 904 900
f 901 897 900 904
o Frente_cajón_cocina_2
usemtl wood_light
v 410.000 567.000 36.000
v 476.000 567.000 36.000
v 476.000 571.000 36.000
v 410.000 571.000 36.000
v 410.000 567.000 56.000
v 476.000 567.000 56.000
v 476.000 571.000 56.000
v 410.000 571.000 56.000
f 905 906 907 908
f 909 912 911 910
f 905 909 910 906
f 906 910 911 907
f 907 911 912 908
f 909 905 908 912
o Fregadero
usemtl metal
v 452.000 563.000 94.000
v 492.000 563.000 94.000
v 492.000 593.000 94.000
v 452.000 593.000 94.000
v 452.000 563.000 99.000
v 492.000 563.000 99.000
v 492.000 593.000 99.000
v 452.000 593.000 99.000
f 913 914 915 916
f 917 920 919 918
f 913 917 918 914
f 914 918 919 915
f 915 919 920 916
f 917 913 916 920
o Grifo
usemtl metal
v 470.000 594.000 98.000
v 475.000 594.000 98.000
v 475.000 599.000 98.000
v 470.000 599.000 98.000
v 470.000 594.000 128.000
v 475.000 594.000 128.000
v 475.000 599.000 128.000
v 470.000 599.000 128.000
f 921 922 923 924
f 925 928 927 926
f 921 925 926 922
f 922 926 927 923
f 923 927 928 924
f 925 921 924 928
o Almohada
usemtl white
v 563.000 537.000 80.000
v 645.000 537.000 80.000
v 645.000 571.000 80.000
v 563.000 571.000 80.000
v 563.000 537.000 92.000
v 645.000 537.000 92.000
v 645.000 571.000 92.000
v 563.000 571.000 92.000
f 929 930 931 932
f 933 936 935 934
f 929 933 934 930
f 930 934 935 931
f 931 935 936 932
f 933 929 932 936
o Respaldo_sofá
usemtl blue
v 330.000 390.000 55.000
v 452.000 390.000 55.000
v 452.000 404.000 55.000
v 330.000 404.000 55.000
v 330.000 390.000 93.000
v 452.000 390.000 93.000
v 452.000 404.000 93.000
v 330.000 404.000 93.000
f 937 938 939 940
f 941 944 943 942
f 937 941 942 938
f 938 942 943 939
f 939 943 944 940
f 941 937 940 944
o Lavamanos_cubeta
usemtl acrylic
v 691.000 435.000 82.000
v 718.000 435.000 82.000
v 718.000 472.000 82.000
v 691.000 472.000 82.000
v 691.000 435.000 90.000
v 718.000 435.000 90.000
v 718.000 472.000 90.000
v 691.000 472.000 90.000
f 945 946 947 948
f 949 952 951 950
f 945 949 950 946
f 946 950 951 947
f 947 951 952 948
f 949 945 948 952
o Ducha_columna
usemtl metal
v 714.000 566.000 27.000
v 720.000 566.000 27.000
v 720.000 572.000 27.000
v 714.000 572.000 27.000
v 714.000 566.000 165.000
v 720.000 566.000 165.000
v 720.000 572.000 165.000
v 714.000 572.000 165.000
f 953 954 955 956
f 957 960 959 958
f 953 957 958 954
f 954 958 959 955
f 955 959 960 956
f 957 953 956 960
o Celda_solar_355-0-0
usemtl blue
v 360.000 386.000 262.200
v 378.000 386.000 262.200
v 378.000 404.000 262.200
v 360.000 404.000 262.200
v 360.000 386.000 263.400
v 378.000 386.000 263.400
v 378.000 404.000 263.400
v 360.000 404.000 263.400
f 961 962 963 964
f 965 968 967 966
f 961 965 966 962
f 962 966 967 963
f 963 967 968 964
f 965 961 964 968
o Celda_solar_355-0-1
usemtl blue
v 382.500 386.000 262.200
v 400.500 386.000 262.200
v 400.500 404.000 262.200
v 382.500 404.000 262.200
v 382.500 386.000 263.400
v 400.500 386.000 263.400
v 400.500 404.000 263.400
v 382.500 404.000 263.400
f 969 970 971 972
f 973 976 975 974
f 969 973 974 970
f 970 974 975 971
f 971 975 976 972
f 973 969 972 976
o Celda_solar_355-0-2
usemtl blue
v 405.000 386.000 262.200
v 423.000 386.000 262.200
v 423.000 404.000 262.200
v 405.000 404.000 262.200
v 405.000 386.000 263.400
v 423.000 386.000 263.400
v 423.000 404.000 263.400
v 405.000 404.000 263.400
f 977 978 979 980
f 981 984 983 982
f 977 981 982 978
f 978 982 983 979
f 979 983 984 980
f 981 977 980 984
o Celda_solar_355-0-3
usemtl blue
v 427.500 386.000 262.200
v 445.500 386.000 262.200
v 445.500 404.000 262.200
v 427.500 404.000 262.200
v 427.500 386.000 263.400
v 445.500 386.000 263.400
v 445.500 404.000 263.400
v 427.500 404.000 263.400
f 985 986 987 988
f 989 992 991 990
f 985 989 990 986
f 986 990 991 987
f 987 991 992 988
f 989 985 988 992
o Celda_solar_355-0-4
usemtl blue
v 450.000 386.000 262.200
v 468.000 386.000 262.200
v 468.000 404.000 262.200
v 450.000 404.000 262.200
v 450.000 386.000 263.400
v 468.000 386.000 263.400
v 468.000 404.000 263.400
v 450.000 404.000 263.400
f 993 994 995 996
f 997 1000 999 998
f 993 997 998 994
f 994 998 999 995
f 995 999 1000 996
f 997 993 996 1000
o Celda_solar_355-0-5
usemtl blue
v 472.500 386.000 262.200
v 490.500 386.000 262.200
v 490.500 404.000 262.200
v 472.500 404.000 262.200
v 472.500 386.000 263.400
v 490.500 386.000 263.400
v 490.500 404.000 263.400
v 472.500 404.000 263.400
f 1001 1002 1003 1004
f 1005 1008 1007 1006
f 1001 1005 1006 1002
f 1002 1006 1007 1003
f 1003 1007 1008 1004
f 1005 1001 1004 1008
o Celda_solar_355-1-0
usemtl blue
v 360.000 410.000 262.200
v 378.000 410.000 262.200
v 378.000 428.000 262.200
v 360.000 428.000 262.200
v 360.000 410.000 263.400
v 378.000 410.000 263.400
v 378.000 428.000 263.400
v 360.000 428.000 263.400
f 1009 1010 1011 1012
f 1013 1016 1015 1014
f 1009 1013 1014 1010
f 1010 1014 1015 1011
f 1011 1015 1016 1012
f 1013 1009 1012 1016
o Celda_solar_355-1-1
usemtl blue
v 382.500 410.000 262.200
v 400.500 410.000 262.200
v 400.500 428.000 262.200
v 382.500 428.000 262.200
v 382.500 410.000 263.400
v 400.500 410.000 263.400
v 400.500 428.000 263.400
v 382.500 428.000 263.400
f 1017 1018 1019 1020
f 1021 1024 1023 1022
f 1017 1021 1022 1018
f 1018 1022 1023 1019
f 1019 1023 1024 1020
f 1021 1017 1020 1024
o Celda_solar_355-1-2
usemtl blue
v 405.000 410.000 262.200
v 423.000 410.000 262.200
v 423.000 428.000 262.200
v 405.000 428.000 262.200
v 405.000 410.000 263.400
v 423.000 410.000 263.400
v 423.000 428.000 263.400
v 405.000 428.000 263.400
f 1025 1026 1027 1028
f 1029 1032 1031 1030
f 1025 1029 1030 1026
f 1026 1030 1031 1027
f 1027 1031 1032 1028
f 1029 1025 1028 1032
o Celda_solar_355-1-3
usemtl blue
v 427.500 410.000 262.200
v 445.500 410.000 262.200
v 445.500 428.000 262.200
v 427.500 428.000 262.200
v 427.500 410.000 263.400
v 445.500 410.000 263.400
v 445.500 428.000 263.400
v 427.500 428.000 263.400
f 1033 1034 1035 1036
f 1037 1040 1039 1038
f 1033 1037 1038 1034
f 1034 1038 1039 1035
f 1035 1039 1040 1036
f 1037 1033 1036 1040
o Celda_solar_355-1-4
usemtl blue
v 450.000 410.000 262.200
v 468.000 410.000 262.200
v 468.000 428.000 262.200
v 450.000 428.000 262.200
v 450.000 410.000 263.400
v 468.000 410.000 263.400
v 468.000 428.000 263.400
v 450.000 428.000 263.400
f 1041 1042 1043 1044
f 1045 1048 1047 1046
f 1041 1045 1046 1042
f 1042 1046 1047 1043
f 1043 1047 1048 1044
f 1045 1041 1044 1048
o Celda_solar_355-1-5
usemtl blue
v 472.500 410.000 262.200
v 490.500 410.000 262.200
v 490.500 428.000 262.200
v 472.500 428.000 262.200
v 472.500 410.000 263.400
v 490.500 410.000 263.400
v 490.500 428.000 263.400
v 472.500 428.000 263.400
f 1049 1050 1051 1052
f 1053 1056 1055 1054
f 1049 1053 1054 1050
f 1050 1054 1055 1051
f 1051 1055 1056 1052
f 1053 1049 1052 1056
o Celda_solar_355-2-0
usemtl blue
v 360.000 434.000 262.200
v 378.000 434.000 262.200
v 378.000 452.000 262.200
v 360.000 452.000 262.200
v 360.000 434.000 263.400
v 378.000 434.000 263.400
v 378.000 452.000 263.400
v 360.000 452.000 263.400
f 1057 1058 1059 1060
f 1061 1064 1063 1062
f 1057 1061 1062 1058
f 1058 1062 1063 1059
f 1059 1063 1064 1060
f 1061 1057 1060 1064
o Celda_solar_355-2-1
usemtl blue
v 382.500 434.000 262.200
v 400.500 434.000 262.200
v 400.500 452.000 262.200
v 382.500 452.000 262.200
v 382.500 434.000 263.400
v 400.500 434.000 263.400
v 400.500 452.000 263.400
v 382.500 452.000 263.400
f 1065 1066 1067 1068
f 1069 1072 1071 1070
f 1065 1069 1070 1066
f 1066 1070 1071 1067
f 1067 1071 1072 1068
f 1069 1065 1068 1072
o Celda_solar_355-2-2
usemtl blue
v 405.000 434.000 262.200
v 423.000 434.000 262.200
v 423.000 452.000 262.200
v 405.000 452.000 262.200
v 405.000 434.000 263.400
v 423.000 434.000 263.400
v 423.000 452.000 263.400
v 405.000 452.000 263.400
f 1073 1074 1075 1076
f 1077 1080 1079 1078
f 1073 1077 1078 1074
f 1074 1078 1079 1075
f 1075 1079 1080 1076
f 1077 1073 1076 1080
o Celda_solar_355-2-3
usemtl blue
v 427.500 434.000 262.200
v 445.500 434.000 262.200
v 445.500 452.000 262.200
v 427.500 452.000 262.200
v 427.500 434.000 263.400
v 445.500 434.000 263.400
v 445.500 452.000 263.400
v 427.500 452.000 263.400
f 1081 1082 1083 1084
f 1085 1088 1087 1086
f 1081 1085 1086 1082
f 1082 1086 1087 1083
f 1083 1087 1088 1084
f 1085 1081 1084 1088
o Celda_solar_355-2-4
usemtl blue
v 450.000 434.000 262.200
v 468.000 434.000 262.200
v 468.000 452.000 262.200
v 450.000 452.000 262.200
v 450.000 434.000 263.400
v 468.000 434.000 263.400
v 468.000 452.000 263.400
v 450.000 452.000 263.400
f 1089 1090 1091 1092
f 1093 1096 1095 1094
f 1089 1093 1094 1090
f 1090 1094 1095 1091
f 1091 1095 1096 1092
f 1093 1089 1092 1096
o Celda_solar_355-2-5
usemtl blue
v 472.500 434.000 262.200
v 490.500 434.000 262.200
v 490.500 452.000 262.200
v 472.500 452.000 262.200
v 472.500 434.000 263.400
v 490.500 434.000 263.400
v 490.500 452.000 263.400
v 472.500 452.000 263.400
f 1097 1098 1099 1100
f 1101 1104 1103 1102
f 1097 1101 1102 1098
f 1098 1102 1103 1099
f 1099 1103 1104 1100
f 1101 1097 1100 1104
o Celda_solar_355-3-0
usemtl blue
v 360.000 458.000 262.200
v 378.000 458.000 262.200
v 378.000 476.000 262.200
v 360.000 476.000 262.200
v 360.000 458.000 263.400
v 378.000 458.000 263.400
v 378.000 476.000 263.400
v 360.000 476.000 263.400
f 1105 1106 1107 1108
f 1109 1112 1111 1110
f 1105 1109 1110 1106
f 1106 1110 1111 1107
f 1107 1111 1112 1108
f 1109 1105 1108 1112
o Celda_solar_355-3-1
usemtl blue
v 382.500 458.000 262.200
v 400.500 458.000 262.200
v 400.500 476.000 262.200
v 382.500 476.000 262.200
v 382.500 458.000 263.400
v 400.500 458.000 263.400
v 400.500 476.000 263.400
v 382.500 476.000 263.400
f 1113 1114 1115 1116
f 1117 1120 1119 1118
f 1113 1117 1118 1114
f 1114 1118 1119 1115
f 1115 1119 1120 1116
f 1117 1113 1116 1120
o Celda_solar_355-3-2
usemtl blue
v 405.000 458.000 262.200
v 423.000 458.000 262.200
v 423.000 476.000 262.200
v 405.000 476.000 262.200
v 405.000 458.000 263.400
v 423.000 458.000 263.400
v 423.000 476.000 263.400
v 405.000 476.000 263.400
f 1121 1122 1123 1124
f 1125 1128 1127 1126
f 1121 1125 1126 1122
f 1122 1126 1127 1123
f 1123 1127 1128 1124
f 1125 1121 1124 1128
o Celda_solar_355-3-3
usemtl blue
v 427.500 458.000 262.200
v 445.500 458.000 262.200
v 445.500 476.000 262.200
v 427.500 476.000 262.200
v 427.500 458.000 263.400
v 445.500 458.000 263.400
v 445.500 476.000 263.400
v 427.500 476.000 263.400
f 1129 1130 1131 1132
f 1133 1136 1135 1134
f 1129 1133 1134 1130
f 1130 1134 1135 1131
f 1131 1135 1136 1132
f 1133 1129 1132 1136
o Celda_solar_355-3-4
usemtl blue
v 450.000 458.000 262.200
v 468.000 458.000 262.200
v 468.000 476.000 262.200
v 450.000 476.000 262.200
v 450.000 458.000 263.400
v 468.000 458.000 263.400
v 468.000 476.000 263.400
v 450.000 476.000 263.400
f 1137 1138 1139 1140
f 1141 1144 1143 1142
f 1137 1141 1142 1138
f 1138 1142 1143 1139
f 1139 1143 1144 1140
f 1141 1137 1140 1144
o Celda_solar_355-3-5
usemtl blue
v 472.500 458.000 262.200
v 490.500 458.000 262.200
v 490.500 476.000 262.200
v 472.500 476.000 262.200
v 472.500 458.000 263.400
v 490.500 458.000 263.400
v 490.500 476.000 263.400
v 472.500 476.000 263.400
f 1145 1146 1147 1148
f 1149 1152 1151 1150
f 1145 1149 1150 1146
f 1146 1150 1151 1147
f 1147 1151 1152 1148
f 1149 1145 1148 1152
o Celda_solar_535-0-0
usemtl blue
v 540.000 386.000 262.200
v 558.000 386.000 262.200
v 558.000 404.000 262.200
v 540.000 404.000 262.200
v 540.000 386.000 263.400
v 558.000 386.000 263.400
v 558.000 404.000 263.400
v 540.000 404.000 263.400
f 1153 1154 1155 1156
f 1157 1160 1159 1158
f 1153 1157 1158 1154
f 1154 1158 1159 1155
f 1155 1159 1160 1156
f 1157 1153 1156 1160
o Celda_solar_535-0-1
usemtl blue
v 562.500 386.000 262.200
v 580.500 386.000 262.200
v 580.500 404.000 262.200
v 562.500 404.000 262.200
v 562.500 386.000 263.400
v 580.500 386.000 263.400
v 580.500 404.000 263.400
v 562.500 404.000 263.400
f 1161 1162 1163 1164
f 1165 1168 1167 1166
f 1161 1165 1166 1162
f 1162 1166 1167 1163
f 1163 1167 1168 1164
f 1165 1161 1164 1168
o Celda_solar_535-0-2
usemtl blue
v 585.000 386.000 262.200
v 603.000 386.000 262.200
v 603.000 404.000 262.200
v 585.000 404.000 262.200
v 585.000 386.000 263.400
v 603.000 386.000 263.400
v 603.000 404.000 263.400
v 585.000 404.000 263.400
f 1169 1170 1171 1172
f 1173 1176 1175 1174
f 1169 1173 1174 1170
f 1170 1174 1175 1171
f 1171 1175 1176 1172
f 1173 1169 1172 1176
o Celda_solar_535-0-3
usemtl blue
v 607.500 386.000 262.200
v 625.500 386.000 262.200
v 625.500 404.000 262.200
v 607.500 404.000 262.200
v 607.500 386.000 263.400
v 625.500 386.000 263.400
v 625.500 404.000 263.400
v 607.500 404.000 263.400
f 1177 1178 1179 1180
f 1181 1184 1183 1182
f 1177 1181 1182 1178
f 1178 1182 1183 1179
f 1179 1183 1184 1180
f 1181 1177 1180 1184
o Celda_solar_535-0-4
usemtl blue
v 630.000 386.000 262.200
v 648.000 386.000 262.200
v 648.000 404.000 262.200
v 630.000 404.000 262.200
v 630.000 386.000 263.400
v 648.000 386.000 263.400
v 648.000 404.000 263.400
v 630.000 404.000 263.400
f 1185 1186 1187 1188
f 1189 1192 1191 1190
f 1185 1189 1190 1186
f 1186 1190 1191 1187
f 1187 1191 1192 1188
f 1189 1185 1188 1192
o Celda_solar_535-0-5
usemtl blue
v 652.500 386.000 262.200
v 670.500 386.000 262.200
v 670.500 404.000 262.200
v 652.500 404.000 262.200
v 652.500 386.000 263.400
v 670.500 386.000 263.400
v 670.500 404.000 263.400
v 652.500 404.000 263.400
f 1193 1194 1195 1196
f 1197 1200 1199 1198
f 1193 1197 1198 1194
f 1194 1198 1199 1195
f 1195 1199 1200 1196
f 1197 1193 1196 1200
o Celda_solar_535-1-0
usemtl blue
v 540.000 410.000 262.200
v 558.000 410.000 262.200
v 558.000 428.000 262.200
v 540.000 428.000 262.200
v 540.000 410.000 263.400
v 558.000 410.000 263.400
v 558.000 428.000 263.400
v 540.000 428.000 263.400
f 1201 1202 1203 1204
f 1205 1208 1207 1206
f 1201 1205 1206 1202
f 1202 1206 1207 1203
f 1203 1207 1208 1204
f 1205 1201 1204 1208
o Celda_solar_535-1-1
usemtl blue
v 562.500 410.000 262.200
v 580.500 410.000 262.200
v 580.500 428.000 262.200
v 562.500 428.000 262.200
v 562.500 410.000 263.400
v 580.500 410.000 263.400
v 580.500 428.000 263.400
v 562.500 428.000 263.400
f 1209 1210 1211 1212
f 1213 1216 1215 1214
f 1209 1213 1214 1210
f 1210 1214 1215 1211
f 1211 1215 1216 1212
f 1213 1209 1212 1216
o Celda_solar_535-1-2
usemtl blue
v 585.000 410.000 262.200
v 603.000 410.000 262.200
v 603.000 428.000 262.200
v 585.000 428.000 262.200
v 585.000 410.000 263.400
v 603.000 410.000 263.400
v 603.000 428.000 263.400
v 585.000 428.000 263.400
f 1217 1218 1219 1220
f 1221 1224 1223 1222
f 1217 1221 1222 1218
f 1218 1222 1223 1219
f 1219 1223 1224 1220
f 1221 1217 1220 1224
o Celda_solar_535-1-3
usemtl blue
v 607.500 410.000 262.200
v 625.500 410.000 262.200
v 625.500 428.000 262.200
v 607.500 428.000 262.200
v 607.500 410.000 263.400
v 625.500 410.000 263.400
v 625.500 428.000 263.400
v 607.500 428.000 263.400
f 1225 1226 1227 1228
f 1229 1232 1231 1230
f 1225 1229 1230 1226
f 1226 1230 1231 1227
f 1227 1231 1232 1228
f 1229 1225 1228 1232
o Celda_solar_535-1-4
usemtl blue
v 630.000 410.000 262.200
v 648.000 410.000 262.200
v 648.000 428.000 262.200
v 630.000 428.000 262.200
v 630.000 410.000 263.400
v 648.000 410.000 263.400
v 648.000 428.000 263.400
v 630.000 428.000 263.400
f 1233 1234 1235 1236
f 1237 1240 1239 1238
f 1233 1237 1238 1234
f 1234 1238 1239 1235
f 1235 1239 1240 1236
f 1237 1233 1236 1240
o Celda_solar_535-1-5
usemtl blue
v 652.500 410.000 262.200
v 670.500 410.000 262.200
v 670.500 428.000 262.200
v 652.500 428.000 262.200
v 652.500 410.000 263.400
v 670.500 410.000 263.400
v 670.500 428.000 263.400
v 652.500 428.000 263.400
f 1241 1242 1243 1244
f 1245 1248 1247 1246
f 1241 1245 1246 1242
f 1242 1246 1247 1243
f 1243 1247 1248 1244
f 1245 1241 1244 1248
o Celda_solar_535-2-0
usemtl blue
v 540.000 434.000 262.200
v 558.000 434.000 262.200
v 558.000 452.000 262.200
v 540.000 452.000 262.200
v 540.000 434.000 263.400
v 558.000 434.000 263.400
v 558.000 452.000 263.400
v 540.000 452.000 263.400
f 1249 1250 1251 1252
f 1253 1256 1255 1254
f 1249 1253 1254 1250
f 1250 1254 1255 1251
f 1251 1255 1256 1252
f 1253 1249 1252 1256
o Celda_solar_535-2-1
usemtl blue
v 562.500 434.000 262.200
v 580.500 434.000 262.200
v 580.500 452.000 262.200
v 562.500 452.000 262.200
v 562.500 434.000 263.400
v 580.500 434.000 263.400
v 580.500 452.000 263.400
v 562.500 452.000 263.400
f 1257 1258 1259 1260
f 1261 1264 1263 1262
f 1257 1261 1262 1258
f 1258 1262 1263 1259
f 1259 1263 1264 1260
f 1261 1257 1260 1264
o Celda_solar_535-2-2
usemtl blue
v 585.000 434.000 262.200
v 603.000 434.000 262.200
v 603.000 452.000 262.200
v 585.000 452.000 262.200
v 585.000 434.000 263.400
v 603.000 434.000 263.400
v 603.000 452.000 263.400
v 585.000 452.000 263.400
f 1265 1266 1267 1268
f 1269 1272 1271 1270
f 1265 1269 1270 1266
f 1266 1270 1271 1267
f 1267 1271 1272 1268
f 1269 1265 1268 1272
o Celda_solar_535-2-3
usemtl blue
v 607.500 434.000 262.200
v 625.500 434.000 262.200
v 625.500 452.000 262.200
v 607.500 452.000 262.200
v 607.500 434.000 263.400
v 625.500 434.000 263.400
v 625.500 452.000 263.400
v 607.500 452.000 263.400
f 1273 1274 1275 1276
f 1277 1280 1279 1278
f 1273 1277 1278 1274
f 1274 1278 1279 1275
f 1275 1279 1280 1276
f 1277 1273 1276 1280
o Celda_solar_535-2-4
usemtl blue
v 630.000 434.000 262.200
v 648.000 434.000 262.200
v 648.000 452.000 262.200
v 630.000 452.000 262.200
v 630.000 434.000 263.400
v 648.000 434.000 263.400
v 648.000 452.000 263.400
v 630.000 452.000 263.400
f 1281 1282 1283 1284
f 1285 1288 1287 1286
f 1281 1285 1286 1282
f 1282 1286 1287 1283
f 1283 1287 1288 1284
f 1285 1281 1284 1288
o Celda_solar_535-2-5
usemtl blue
v 652.500 434.000 262.200
v 670.500 434.000 262.200
v 670.500 452.000 262.200
v 652.500 452.000 262.200
v 652.500 434.000 263.400
v 670.500 434.000 263.400
v 670.500 452.000 263.400
v 652.500 452.000 263.400
f 1289 1290 1291 1292
f 1293 1296 1295 1294
f 1289 1293 1294 1290
f 1290 1294 1295 1291
f 1291 1295 1296 1292
f 1293 1289 1292 1296
o Celda_solar_535-3-0
usemtl blue
v 540.000 458.000 262.200
v 558.000 458.000 262.200
v 558.000 476.000 262.200
v 540.000 476.000 262.200
v 540.000 458.000 263.400
v 558.000 458.000 263.400
v 558.000 476.000 263.400
v 540.000 476.000 263.400
f 1297 1298 1299 1300
f 1301 1304 1303 1302
f 1297 1301 1302 1298
f 1298 1302 1303 1299
f 1299 1303 1304 1300
f 1301 1297 1300 1304
o Celda_solar_535-3-1
usemtl blue
v 562.500 458.000 262.200
v 580.500 458.000 262.200
v 580.500 476.000 262.200
v 562.500 476.000 262.200
v 562.500 458.000 263.400
v 580.500 458.000 263.400
v 580.500 476.000 263.400
v 562.500 476.000 263.400
f 1305 1306 1307 1308
f 1309 1312 1311 1310
f 1305 1309 1310 1306
f 1306 1310 1311 1307
f 1307 1311 1312 1308
f 1309 1305 1308 1312
o Celda_solar_535-3-2
usemtl blue
v 585.000 458.000 262.200
v 603.000 458.000 262.200
v 603.000 476.000 262.200
v 585.000 476.000 262.200
v 585.000 458.000 263.400
v 603.000 458.000 263.400
v 603.000 476.000 263.400
v 585.000 476.000 263.400
f 1313 1314 1315 1316
f 1317 1320 1319 1318
f 1313 1317 1318 1314
f 1314 1318 1319 1315
f 1315 1319 1320 1316
f 1317 1313 1316 1320
o Celda_solar_535-3-3
usemtl blue
v 607.500 458.000 262.200
v 625.500 458.000 262.200
v 625.500 476.000 262.200
v 607.500 476.000 262.200
v 607.500 458.000 263.400
v 625.500 458.000 263.400
v 625.500 476.000 263.400
v 607.500 476.000 263.400
f 1321 1322 1323 1324
f 1325 1328 1327 1326
f 1321 1325 1326 1322
f 1322 1326 1327 1323
f 1323 1327 1328 1324
f 1325 1321 1324 1328
o Celda_solar_535-3-4
usemtl blue
v 630.000 458.000 262.200
v 648.000 458.000 262.200
v 648.000 476.000 262.200
v 630.000 476.000 262.200
v 630.000 458.000 263.400
v 648.000 458.000 263.400
v 648.000 476.000 263.400
v 630.000 476.000 263.400
f 1329 1330 1331 1332
f 1333 1336 1335 1334
f 1329 1333 1334 1330
f 1330 1334 1335 1331
f 1331 1335 1336 1332
f 1333 1329 1332 1336
o Celda_solar_535-3-5
usemtl blue
v 652.500 458.000 262.200
v 670.500 458.000 262.200
v 670.500 476.000 262.200
v 652.500 476.000 262.200
v 652.500 458.000 263.400
v 670.500 458.000 263.400
v 670.500 476.000 263.400
v 652.500 476.000 263.400
f 1337 1338 1339 1340
f 1341 1344 1343 1342
f 1337 1341 1342 1338
f 1338 1342 1343 1339
f 1339 1343 1344 1340
f 1341 1337 1340 1344
o Imán_techo_300-300
usemtl magnet
v 300.000 300.000 241.000
v 308.000 300.000 241.000
v 308.000 308.000 241.000
v 300.000 308.000 241.000
v 300.000 300.000 245.000
v 308.000 300.000 245.000
v 308.000 308.000 245.000
v 300.000 308.000 245.000
f 1345 1346 1347 1348
f 1349 1352 1351 1350
f 1345 1349 1350 1346
f 1346 1350 1351 1347
f 1347 1351 1352 1348
f 1349 1345 1348 1352
o Imán_techo_724-300
usemtl magnet
v 724.000 300.000 241.000
v 732.000 300.000 241.000
v 732.000 308.000 241.000
v 724.000 308.000 241.000
v 724.000 300.000 245.000
v 732.000 300.000 245.000
v 732.000 308.000 245.000
v 724.000 308.000 245.000
f 1353 1354 1355 1356
f 1357 1360 1359 1358
f 1353 1357 1358 1354
f 1354 1358 1359 1355
f 1355 1359 1360 1356
f 1357 1353 1356 1360
o Imán_techo_300-620
usemtl magnet
v 300.000 620.000 241.000
v 308.000 620.000 241.000
v 308.000 628.000 241.000
v 300.000 628.000 241.000
v 300.000 620.000 245.000
v 308.000 620.000 245.000
v 308.000 628.000 245.000
v 300.000 628.000 245.000
f 1361 1362 1363 1364
f 1365 1368 1367 1366
f 1361 1365 1366 1362
f 1362 1366 1367 1363
f 1363 1367 1368 1364
f 1365 1361 1364 1368
o Imán_techo_724-620
usemtl magnet
v 724.000 620.000 241.000
v 732.000 620.000 241.000
v 732.000 628.000 241.000
v 724.000 628.000 241.000
v 724.000 620.000 245.000
v 732.000 620.000 245.000
v 732.000 628.000 245.000
v 724.000 628.000 245.000
f 1369 1370 1371 1372
f 1373 1376 1375 1374
f 1369 1373 1374 1370
f 1370 1374 1375 1371
f 1371 1375 1376 1372
f 1373 1369 1372 1376
o Bisagra_gabinete_izquierda
usemtl magnet
v 872.000 232.000 72.000
v 880.000 232.000 72.000
v 880.000 239.000 72.000
v 872.000 239.000 72.000
v 872.000 232.000 96.000
v 880.000 232.000 96.000
v 880.000 239.000 96.000
v 872.000 239.000 96.000
f 1377 1378 1379 1380
f 1381 1384 1383 1382
f 1377 1381 1382 1378
f 1378 1382 1383 1379
f 1379 1383 1384 1380
f 1381 1377 1380 1384
o Bisagra_gabinete_derecha
usemtl magnet
v 963.000 232.000 72.000
v 971.000 232.000 72.000
v 971.000 239.000 72.000
v 963.000 239.000 72.000
v 963.000 232.000 96.000
v 971.000 232.000 96.000
v 971.000 239.000 96.000
v 963.000 239.000 96.000
f 1385 1386 1387 1388
f 1389 1392 1391 1390
f 1385 1389 1390 1386
f 1386 1390 1391 1387
f 1387 1391 1392 1388
f 1389 1385 1388 1392
o Bandeja_antiderrame
usemtl blue_light
v 18.000 58.000 10.000
v 124.000 58.000 10.000
v 124.000 164.000 10.000
v 18.000 164.000 10.000
v 18.000 58.000 14.000
v 124.000 58.000 14.000
v 124.000 164.000 14.000
v 18.000 164.000 14.000
f 1393 1394 1395 1396
f 1397 1400 1399 1398
f 1393 1397 1398 1394
f 1394 1398 1399 1395
f 1395 1399 1400 1396
f 1397 1393 1396 1400
o Drenaje_bandeja
usemtl water
v 18.000 109.000 10.000
v 40.000 109.000 10.000
v 40.000 117.000 10.000
v 18.000 117.000 10.000
v 18.000 109.000 16.000
v 40.000 109.000 16.000
v 40.000 117.000 16.000
v 18.000 117.000 16.000
f 1401 1402 1403 1404
f 1405 1408 1407 1406
f 1401 1405 1406 1402
f 1402 1406 1407 1403
f 1403 1407 1408 1404
f 1405 1401 1404 1408
o Tallo_planta_48
usemtl green
v 51.000 333.000 61.000
v 55.000 333.000 61.000
v 55.000 337.000 61.000
v 51.000 337.000 61.000
v 51.000 333.000 123.000
v 55.000 333.000 123.000
v 55.000 337.000 123.000
v 51.000 337.000 123.000
f 1409 1410 1411 1412
f 1413 1416 1415 1414
f 1409 1413 1414 1410
f 1410 1414 1415 1411
f 1411 1415 1416 1412
f 1413 1409 1412 1416
o Hoja_A_planta_48
usemtl green
v 44.048 322.773 92.000
v 61.707 332.163 92.000
v 57.952 339.227 92.000
v 40.293 329.837 92.000
v 44.048 322.773 97.000
v 61.707 332.163 97.000
v 57.952 339.227 97.000
v 40.293 329.837 97.000
f 1417 1418 1419 1420
f 1421 1424 1423 1422
f 1417 1421 1422 1418
f 1418 1422 1423 1419
f 1419 1423 1424 1420
f 1421 1417 1420 1424
o Hoja_B_planta_48
usemtl green
v 48.324 341.820 108.000
v 68.422 332.872 108.000
v 71.676 340.180 108.000
v 51.578 349.128 108.000
v 48.324 341.820 113.000
v 68.422 332.872 113.000
v 71.676 340.180 113.000
v 51.578 349.128 113.000
f 1425 1426 1427 1428
f 1429 1432 1431 1430
f 1425 1429 1430 1426
f 1426 1430 1431 1427
f 1427 1431 1432 1428
f 1429 1425 1428 1432
o Tallo_planta_88
usemtl green
v 91.000 333.000 61.000
v 95.000 333.000 61.000
v 95.000 337.000 61.000
v 91.000 337.000 61.000
v 91.000 333.000 123.000
v 95.000 333.000 123.000
v 95.000 337.000 123.000
v 91.000 337.000 123.000
f 1433 1434 1435 1436
f 1437 1440 1439 1438
f 1433 1437 1438 1434
f 1434 1438 1439 1435
f 1435 1439 1440 1436
f 1437 1433 1436 1440
o Hoja_A_planta_88
usemtl green
v 84.048 322.773 92.000
v 101.707 332.163 92.000
v 97.952 339.227 92.000
v 80.293 329.837 92.000
v 84.048 322.773 97.000
v 101.707 332.163 97.000
v 97.952 339.227 97.000
v 80.293 329.837 97.000
f 1441 1442 1443 1444
f 1445 1448 1447 1446
f 1441 1445 1446 1442
f 1442 1446 1447 1443
f 1443 1447 1448 1444
f 1445 1441 1444 1448
o Hoja_B_planta_88
usemtl green
v 88.324 341.820 108.000
v 108.422 332.872 108.000
v 111.676 340.180 108.000
v 91.578 349.128 108.000
v 88.324 341.820 113.000
v 108.422 332.872 113.000
v 111.676 340.180 113.000
v 91.578 349.128 113.000
f 1449 1450 1451 1452
f 1453 1456 1455 1454
f 1449 1453 1454 1450
f 1450 1454 1455 1451
f 1451 1455 1456 1452
f 1453 1449 1452 1456
o Tallo_planta_172
usemtl green
v 175.000 333.000 61.000
v 179.000 333.000 61.000
v 179.000 337.000 61.000
v 175.000 337.000 61.000
v 175.000 333.000 123.000
v 179.000 333.000 123.000
v 179.000 337.000 123.000
v 175.000 337.000 123.000
f 1457 1458 1459 1460
f 1461 1464 1463 1462
f 1457 1461 1462 1458
f 1458 1462 1463 1459
f 1459 1463 1464 1460
f 1461 1457 1460 1464
o Hoja_A_planta_172
usemtl green
v 168.048 322.773 92.000
v 185.707 332.163 92.000
v 181.952 339.227 92.000
v 164.293 329.837 92.000
v 168.048 322.773 97.000
v 185.707 332.163 97.000
v 181.952 339.227 97.000
v 164.293 329.837 97.000
f 1465 1466 1467 1468
f 1469 1472 1471 1470
f 1465 1469 1470 1466
f 1466 1470 1471 1467
f 1467 1471 1472 1468
f 1469 1465 1468 1472
o Hoja_B_planta_172
usemtl green
v 172.324 341.820 108.000
v 192.422 332.872 108.000
v 195.676 340.180 108.000
v 175.578 349.128 108.000
v 172.324 341.820 113.000
v 192.422 332.872 113.000
v 195.676 340.180 113.000
v 175.578 349.128 113.000
f 1473 1474 1475 1476
f 1477 1480 1479 1478
f 1473 1477 1478 1474
f 1474 1478 1479 1475
f 1475 1479 1480 1476
f 1477 1473 1476 1480
o Tallo_planta_212
usemtl green
v 215.000 333.000 61.000
v 219.000 333.000 61.000
v 219.000 337.000 61.000
v 215.000 337.000 61.000
v 215.000 333.000 123.000
v 219.000 333.000 123.000
v 219.000 337.000 123.000
v 215.000 337.000 123.000
f 1481 1482 1483 1484
f 1485 1488 1487 1486
f 1481 1485 1486 1482
f 1482 1486 1487 1483
f 1483 1487 1488 1484
f 1485 1481 1484 1488
o Hoja_A_planta_212
usemtl green
v 208.048 322.773 92.000
v 225.707 332.163 92.000
v 221.952 339.227 92.000
v 204.293 329.837 92.000
v 208.048 322.773 97.000
v 225.707 332.163 97.000
v 221.952 339.227 97.000
v 204.293 329.837 97.000
f 1489 1490 1491 1492
f 1493 1496 1495 1494
f 1489 1493 1494 1490
f 1490 1494 1495 1491
f 1491 1495 1496 1492
f 1493 1489 1492 1496
o Hoja_B_planta_212
usemtl green
v 212.324 341.820 108.000
v 232.422 332.872 108.000
v 235.676 340.180 108.000
v 215.578 349.128 108.000
v 212.324 341.820 113.000
v 232.422 332.872 113.000
v 235.676 340.180 113.000
v 215.578 349.128 113.000
f 1497 1498 1499 1500
f 1501 1504 1503 1502
f 1497 1501 1502 1498
f 1498 1502 1503 1499
f 1499 1503 1504 1500
f 1501 1497 1500 1504
o Bus_5V_canal_técnico
usemtl cable_power
v 295.000 38.000 29.000
v 965.000 38.000 29.000
v 965.000 42.000 29.000
v 295.000 42.000 29.000
v 295.000 38.000 33.000
v 965.000 38.000 33.000
v 965.000 42.000 33.000
v 295.000 42.000 33.000
f 1505 1506 1507 1508
f 1509 1512 1511 1510
f 1505 1509 1510 1506
f 1506 1510 1511 1507
f 1507 1511 1512 1508
f 1509 1505 1508 1512
o Bus_GND_canal_técnico
usemtl cable_ground
v 295.000 46.000 29.000
v 965.000 46.000 29.000
v 965.000 50.000 29.000
v 295.000 50.000 29.000
v 295.000 46.000 33.000
v 965.000 46.000 33.000
v 965.000 50.000 33.000
v 295.000 50.000 33.000
f 1513 1514 1515 1516
f 1517 1520 1519 1518
f 1513 1517 1518 1514
f 1514 1518 1519 1515
f 1515 1519 1520 1516
f 1517 1513 1516 1520
o Señal_gabinete-casa
usemtl signal
v 705.000 54.000 31.000
v 955.000 54.000 31.000
v 955.000 58.000 31.000
v 705.000 58.000 31.000
v 705.000 54.000 35.000
v 955.000 54.000 35.000
v 955.000 58.000 35.000
v 705.000 58.000 35.000
f 1521 1522 1523 1524
f 1525 1528 1527 1526
f 1521 1525 1526 1522
f 1522 1526 1527 1523
f 1523 1527 1528 1524
f 1525 1521 1524 1528
o Señal_sensores_casa
usemtl signal
v 575.000 60.000 33.000
v 579.000 60.000 33.000
v 579.000 610.000 33.000
v 575.000 610.000 33.000
v 575.000 60.000 37.000
v 579.000 60.000 37.000
v 579.000 610.000 37.000
v 575.000 610.000 37.000
f 1529 1530 1531 1532
f 1533 1536 1535 1534
f 1529 1533 1534 1530
f 1530 1534 1535 1531
f 1531 1535 1536 1532
f 1533 1529 1532 1536
o Alimentación_invernadero
usemtl cable_power
v 245.000 55.000 31.000
v 249.000 55.000 31.000
v 249.000 500.000 31.000
v 245.000 500.000 31.000
v 245.000 55.000 35.000
v 249.000 55.000 35.000
v 249.000 500.000 35.000
v 245.000 500.000 35.000
f 1537 1538 1539 1540
f 1541 1544 1543 1542
f 1537 1541 1542 1538
f 1538 1542 1543 1539
f 1539 1543 1544 1540
f 1541 1537 1540 1544
o Manguera_depósito-bomba
usemtl water
v 103.000 111.000 48.000
v 133.000 111.000 48.000
v 133.000 119.000 48.000
v 103.000 119.000 48.000
v 103.000 111.000 56.000
v 133.000 111.000 56.000
v 133.000 119.000 56.000
v 103.000 119.000 56.000
f 1545 1546 1547 1548
f 1549 1552 1551 1550
f 1545 1549 1550 1546
f 1546 1550 1551 1547
f 1547 1551 1552 1548
f 1549 1545 1548 1552
o Manguera_principal_riego
usemtl blue_light
v 158.000 130.000 48.000
v 166.000 130.000 48.000
v 166.000 280.000 48.000
v 158.000 280.000 48.000
v 158.000 130.000 56.000
v 166.000 130.000 56.000
v 166.000 280.000 56.000
v 158.000 280.000 56.000
f 1553 1554 1555 1556
f 1557 1560 1559 1558
f 1553 1557 1558 1554
f 1554 1558 1559 1555
f 1555 1559 1560 1556
f 1557 1553 1556 1560
o Chip_ESP32-S3
usemtl metal
v 899.000 343.000 128.000
v 918.000 343.000 128.000
v 918.000 357.000 128.000
v 899.000 357.000 128.000
v 899.000 343.000 133.000
v 918.000 343.000 133.000
v 918.000 357.000 133.000
v 899.000 357.000 133.000
f 1561 1562 1563 1564
f 1565 1568 1567 1566
f 1561 1565 1566 1562
f 1562 1566 1567 1563
f 1563 1567 1568 1564
f 1565 1561 1564 1568
o Conector_USB_servicio
usemtl metal
v 902.000 332.000 70.000
v 916.000 332.000 70.000
v 916.000 339.000 70.000
v 902.000 339.000 70.000
v 902.000 332.000 78.000
v 916.000 332.000 78.000
v 916.000 339.000 78.000
v 902.000 339.000 78.000
f 1569 1570 1571 1572
f 1573 1576 1575 1574
f 1569 1573 1574 1570
f 1570 1574 1575 1571
f 1571 1575 1576 1572
f 1573 1569 1572 1576
o Bornera_5V_roja
usemtl cable_power
v 932.000 289.000 79.000
v 945.000 289.000 79.000
v 945.000 297.000 79.000
v 932.000 297.000 79.000
v 932.000 289.000 87.000
v 945.000 289.000 87.000
v 945.000 297.000 87.000
v 932.000 297.000 87.000
f 1577 1578 1579 1580
f 1581 1584 1583 1582
f 1577 1581 1582 1578
f 1578 1582 1583 1579
f 1579 1583 1584 1580
f 1581 1577 1580 1584
o Bornera_GND_negra
usemtl cable_ground
v 950.000 289.000 79.000
v 963.000 289.000 79.000
v 963.000 297.000 79.000
v 950.000 297.000 79.000
v 950.000 289.000 87.000
v 963.000 289.000 87.000
v 963.000 297.000 87.000
v 950.000 297.000 87.000
f 1585 1586 1587 1588
f 1589 1592 1591 1590
f 1585 1589 1590 1586
f 1586 1590 1591 1587
f 1587 1591 1592 1588
f 1589 1585 1588 1592
o Terminal_relé_CH1
usemtl yellow
v 941.000 326.000 72.000
v 963.000 326.000 72.000
v 963.000 334.000 72.000
v 941.000 334.000 72.000
v 941.000 326.000 79.000
v 963.000 326.000 79.000
v 963.000 334.000 79.000
v 941.000 334.000 79.000
f 1593 1594 1595 1596
f 1597 1600 1599 1598
f 1593 1597 1598 1594
f 1594 1598 1599 1595
f 1595 1599 1600 1596
f 1597 1593 1596 1600
o Terminal_relé_CH2
usemtl yellow
v 941.000 326.000 94.000
v 963.000 326.000 94.000
v 963.000 334.000 94.000
v 941.000 334.000 94.000
v 941.000 326.000 101.000
v 963.000 326.000 101.000
v 963.000 334.000 101.000
v 941.000 334.000 101.000
f 1601 1602 1603 1604
f 1605 1608 1607 1606
f 1601 1605 1606 1602
f 1602 1606 1607 1603
f 1603 1607 1608 1604
f 1605 1601 1604 1608
o Terminal_relé_CH3
usemtl yellow
v 941.000 326.000 116.000
v 963.000 326.000 116.000
v 963.000 334.000 116.000
v 941.000 334.000 116.000
v 941.000 326.000 123.000
v 963.000 326.000 123.000
v 963.000 334.000 123.000
v 941.000 334.000 123.000
f 1609 1610 1611 1612
f 1613 1616 1615 1614
f 1609 1613 1614 1610
f 1610 1614 1615 1611
f 1611 1615 1616 1612
f 1613 1609 1612 1616
o Terminal_relé_CH4
usemtl yellow
v 941.000 326.000 138.000
v 963.000 326.000 138.000
v 963.000 334.000 138.000
v 941.000 334.000 138.000
v 941.000 326.000 145.000
v 963.000 326.000 145.000
v 963.000 334.000 145.000
v 941.000 334.000 145.000
f 1617 1618 1619 1620
f 1621 1624 1623 1622
f 1617 1621 1622 1618
f 1618 1622 1623 1619
f 1619 1623 1624 1620
f 1621 1617 1620 1624
